<?xml version="1.0" standalone="no"?>
<!DOCTYPE svg PUBLIC "-//W3C//DTD SVG 1.1//EN" "http://www.w3.org/Graphics/SVG/1.1/DTD/svg11.dtd" >
<svg xmlns="http://www.w3.org/2000/svg">
<metadata>
<json>
<![CDATA[
{
	"fontFamily": "beeicon",
	"description": "Special font icon for BeeCSM\nFont generated by IcoMoon.",
	"majorVersion": 1,
	"minorVersion": 0,
	"fontURL": "http://beecms.net",
	"copyright": "BeeCSM 2016",
	"designer": "OGreSiv",
	"designerURL": "http://seroed.intfom.com/",
	"license": "GPL",
	"version": "Version 1.0",
	"fontId": "beeicon",
	"psName": "beeicon",
	"subFamily": "Regular",
	"fullName": "beeicon"
}
]]>
</json>
</metadata>
<defs>
<font id="beeicon" horiz-adv-x="1024">
<font-face units-per-em="1024" ascent="960" descent="-64" />
<missing-glyph horiz-adv-x="1024" />
<glyph unicode="&#x20;" horiz-adv-x="512" d="" />
<glyph unicode="&#x23;" glyph-name="drupal" data-tags="drupal" d="M64 377q0-30 4-59t12-57q7-27 18-53t25-50q16-26 34-49t40-44q21-20 44.5-38t49.5-32q1 0 1-0.5t1-0.5l1.5-1.5t1.5-0.5q1-1 2-1t1-1q1 0 2-0.5l4-2t2-1.5q1 0 1.5-0.5l0.5-0.5 3-1.5t2-0.5l1-1q23-11 47.5-19.5t49.5-14.5 51.5-9 52.5-3q89 0 169.5 31t141.5 87q61 57 97 137t36 178-31 170-70 121q-39 48-75.5 74.5t-48.5 34.5q-1 0-1.5 0.5t-1.5 0.5q-16 11-33 19t-33 16q-17 7-33.5 14.5t-32.5 17.5q-4 2-8 4.5t-8 5.5q-11 7-24.5 20t-27.5 28-28.5 31.5-27.5 32.5h-1q0-8-1-15t-3-14q-1-6-2.5-12t-2.5-11q-4-11-8-20t-9-16q-4-7-9.5-13t-10.5-11q-1-1-2.5-1.5t-2.5-1.5q-19-15-34.5-25t-30.5-19q-15-8-29.5-15t-30.5-16q-3-2-7-4t-9-5q-10-6-23-15t-28-21q-15-13-31.5-28.5t-32.5-34.5q-20-24-39-53.5t-33-64.5q-15-35-23.5-76.5t-8.5-89.5zM258 224q1 28 14 55t35 48 51.5 33.5 63.5 12.5q43 1 80-17t68-39q32-22 58-39.5t48-17.5q18 0 43.5 15.5t52.5 33.5 51.5 33.5 42.5 15.5 30.5-8.5 19.5-21.5q7-12 10-26.5t3-25.5q0-12-2-27t-6-32q-4-16-10.5-32.5t-15.5-28.5q-8-13-16-22t-15-15q-8-5-16-7.5t-19-1.5q-13 1-32 19t-40 39-41.5 39-37.5 19q-22 0-54.5-18.5t-70.5-40.5q-38-23-78-42t-77-19q-22 0-37 1.5t-26 4.5q-10 3-18 7t-15 9q-11 8-19.5 17.5t-13.5 21.5q-6 12-8.5 26t-2.5 31zM464 30q1 6 5 9 3 3 6.5 5t7.5 2h5.5t2.5-2q8-6 17.5-11t22.5-9 31-6 42-2q23 0 43 3t36 7q17 5 28.5 11t19.5 11q6 5 9.5 2.5t4.5-5.5q0-3 0.5-7t-4.5-10q-4-3-34-20t-70-21q-20-2-42.5-3t-45.5 2q-22 3-43 10.5t-37 21.5q-6 6-5 12zM558.5 104.5q1.5 6.5 9.5 13.5 4 4 9.5 8.5t11.5 8.5q5 5 11.5 9t12.5 7q7 2 12 3.5t10 1.5q4 1 9 1h11t12-0.5 12-1.5q5-1 10.5-2.5t9.5-4.5q9-6 14.5-17t8.5-19q3-7 0.5-12t-8.5-8q-5-3-7.5-0.5t-7.5 11.5q-2 5-5 9.5t-8 8.5-13 6-21 2-22-2-16-6q-7-3-12.5-8t-11.5-10q-13-10-18.5-13t-10.5 2q-4 6-2.5 12.5z" />
<glyph unicode="&#x24;" glyph-name="uni24" data-tags="uni24" d="M5 754q-14-38 10.5-93.5t89.5-93.5 170.5-42 252.5 61q-1 2-3.5 8t-3.5 8q-54 110-134.5 166.5t-158.5 69.5-141-10.5-82-73.5zM266.5 83q0.5-6 2.5-11t6-9 10-6q8-3 29-10.5t23-8.5q18-6 39.5-12.5t45.5-12.5q24-7 50.5-12.5t54.5-10.5q-17 16-31.5 33.5t-27.5 35.5q-14 19-25 39t-21 41q-9 21-16.5 43.5t-12.5 45.5-8 46-3 47q-16-24-29.5-47.5t-24.5-46.5q-12-22-21.5-43t-17.5-38q-1-2-9.5-22.5t-11.5-29.5q-2-5-1.5-11zM463 315q1-24 5-48t11-48 18-47q10-23 22-43.5t27-38.5q14-19 30.5-35.5t34.5-30.5q11-9 26-16t31-12q17-5 34.5-7.5t33.5-2.5q15 0 30 2t30 6 29 10 27 12q9 5 23 13.5t15 9.5q-8 2-16 4.5t-15 6.5q-7 3-14 7.5t-14 9.5q-23 18-43.5 38.5t-39.5 44.5q-18 24-33.5 50.5t-28.5 55.5q-14 30-23 60t-15 59q-5 30-6.5 60t1.5 59q1 9 2.5 17t3.5 16q2 7 5.5 15t6.5 15q-1 0-3-1l-2-1q-13-3-25-7t-23-9q-12-5-23-11t-21-13q-16-10-30-22.5t-26-26.5-21-30.5-15-33.5q-2-5-3-10l-4-20t-1-10q-2-23-1-47zM565.5 753.5q-6.5-57.5 23.5-131.5 0-1 1.5-4.5t2.5-4.5q83 37 122 84t48 90q10 44-3 76.5t-34 40.5q-29 11-65.5-3.5t-62.5-51.5q-26-38-32.5-95.5zM734 438q1-24 6-48 4-25 11.5-49t18.5-47q10-24 22.5-45.5t27.5-40.5 31.5-36 35.5-32q5-4 10.5-6.5t11.5-4.5 11.5-3 11.5-1q11 0 21.5 3t20.5 9q9 5 16 13t12 18q11 27 16.5 55.5t5.5 57.5-6.5 58.5-18.5 57.5q-13 28-30.5 52.5t-38.5 43.5q-21 20-46 34.5t-51 24.5q-6 2-11.5 3t-10.5 1q-14 0-27-5.5t-24-14.5q-10-10-17-22.5t-8-27.5q-2-24-1-48z" />
<glyph unicode="&#x26;" glyph-name="yammer" data-tags="yammer" d="M1.5 804q-0.5-10 2.5-20 16-39 116-282.5l100-243.5-13-28q-8-21-17-39t-22-31-30-20-41-7q-5 0-16.5 0.5t-12.5 1.5q-8 0-15.5-2.5t-13.5-6.5-10.5-10.5-6.5-14.5q-2-9-1-17.5t5-16.5q5-7 11.5-12.5t15.5-8.5q6-1 12.5-1.5t13.5-1.5q6 0 12-0.5t12-0.5q45 0 75.5 12.5t53.5 34.5q22 22 38 53t30 68l109 271.5t116 288.5q1 3 2 5.5t2 4.5l0.5 0.5q0.5 0.5 0.5 1.5 3 10 2 19.5t-5 18.5q-5 8-12.5 14.5t-16.5 9.5q-10 3-19.5 2.5t-17.5-5.5q-9-4-15.5-11t-9.5-16l-0.5-2t-0.5-3v-3q-13-31-86.5-225.5l-73.5-194.5h-2l-169 429v1l-2 6q-5 10-12 16.5t-16 10.5q-9 3-19 3.5t-19-3.5q-10-3-17.5-10t-11.5-16q-5-9-5.5-19zM585 314q0-15 35.5-46.5t78.5-64.5q43-32 81.5-58t45.5-30l8-4q4-1 8.5-1.5t8.5-0.5q8 0 15 1.5t14 5.5q7 3 12.5 8.5t9.5 11.5q6 10 8 21t0 22q-1 10-7 20t-16 18q-31 17-71 37t-80 37-74 28.5-53 11.5q-6 0-10.5-1t-7.5-4q-3-2-5-5t-1-7zM585 581q-1-3 1-6.5t5-5.5 7.5-3.5 10.5-1.5q19 0 53.5 11.5t73.5 28.5q40 17 80.5 37.5t72.5 37.5q9 8 14.5 17.5t7.5 20.5q1 10-1 21t-8 21q-4 6-9.5 11.5t-12.5 8.5q-7 4-14 6t-15 2q-4 0-8.5-1t-9.5-2l-7-4q-7-4-45.5-30t-81.5-58q-43-33-78.5-64.5t-35.5-46.5zM660 443q0-5 1-8 17-34 164-41.5t151-4.5q11 2 20.5 8t16.5 14q6 9 9.5 20t2.5 22q0 10-4 19t-10 17q-7 7-15.5 12.5t-18.5 7.5h-7q-9 0-55-4t-99-12q-54-8-100-18.5t-54-23.5q-2-3-2-8z" />
<glyph unicode="&#x28;" glyph-name="stackoverflow" data-tags="stackoverflow" d="M111-64h667v430h-82v-349h-511l3 344-77 1v-426zM236 79v82h399v-82h-399zM238 226l8 88 402-39-8-87zM259 403l24 85 388-110-23-84zM332 609l45 75 346-209-46-75zM502 819l72 51 235-328-71-51zM760 945l87 15 66-399-86-14z" />
<glyph unicode="&#x2a;" glyph-name="uni2A" data-tags="uni2A" d="M15 433.5q0-10.5 5-15.5 3-3 25.5-3.5t89.5 0.5q45 1 78 2.5t34 2.5q1 0 0.5 4.5t-1.5 10.5q-2 8-4.5 11t-10.5 5q-7 1-28 2t-48 1q-45 0-89-1.5t-46-3.5q-5-5-5-15.5zM264 456q1-1 22.5-2.5t50.5-2.5q45-2 59.5-1.5t18.5 4.5q5 4 9 6t8 3q4 0 8.5-1t10.5-3q9-5 12-11t1-18q-1-7-6-12t-13-7q-7-2-14.5-1t-12.5 6q-4 5-17 5.5t-58-1.5q-28-1-49-2.5l-21-1.5q-3-3 6-16.5t21-23.5q11-10 25-18t32-15q17-6 37-10.5t43-6.5q29-3 63.5-1.5t70.5 8.5q37 6 73 16.5t68 24.5q21 9 43 22t43 27q20 14 36 28t24 26q4 5 8.5 10.5t5.5 7.5q7 7 12.5 19t8.5 26 3.5 27.5-2.5 24.5q-3 13-14.5 31t-17.5 18q-4 0-30.5-28.5t-28.5-34.5q-1-6 0-10t5-6q4-3 11-4t18-1q23 0 22-3t-27-13q-16-6-25.5-12t-13.5-13-2.5-16 7.5-22q3-8 5-13.5l2-5.5q-1-1-7 0.5t-14 4.5q-9 2-16 3.5t-12 1.5q-6 0-10.5-1t-9.5-3-10-8.5-10-15.5q-4-8-7.5-16.5t-3.5-13.5q0-4-1-7t-3-4q-3-2-7.5 7.5t-4.5 19.5q0 4-4 11t-9 14l-8.5 8.5t-7.5 4.5q-3 2-8.5 2h-15.5t-22-1-19-2l-16-3 23 24q8 8 12.5 13t6.5 10q3 4 3.5 8t0.5 10q0 7-1.5 13.5t-5.5 12.5q-3 6-9 12.5t-14 13.5l-12 11 16-3q21-4 36-3t26 8 17 20 9 33q1 7 2.5 12t3.5 5q1 0 4-6l7-14q4-10 8-15.5t8-8.5q4-2 9-1t11 6q9 6 28 27t21 27q2 7-30 11t-74 4q-16 0-32.5-0.5t-32.5-1.5q-15-1-29-3t-24-5q-46-11-60.5-16.5t-11.5-11.5q1-3 3.5-9.5t4.5-12.5q7-20 11.5-29t7.5-9q4 0 13.5-11.5t9.5-16.5q0-3-3-8t-7-9q-5-5-10-7.5t-11-3.5q-6 0-11 2t-10 7q-6 5-7.5 9.5t0.5 14.5q1 6 0.5 11.5t-3.5 13.5q-2 7-7 17.5t-12 26.5l-5 9-28-14q-33-16-60-34.5t-48-38.5q-20-21-34-42.5t-21-44.5q-2-7-3.5-12.5t-0.5-5.5zM304.5 300q-2.5-2 7.5-24 4-8 8-18t7-16q2-6 5.5-13.5t5.5-12.5l4.5-9t5.5-13q3-7 7.5-17t10.5-24q3-7 6.5-15t5.5-13q2-4 5-10.5t6-14.5 7-17l8-18q8-18 13.5-29.5t9.5-19.5q5-8 10-13.5t11-12.5q9-8 20-15.5t24-13.5 26.5-11 28.5-8q22-5 47.5-6t53.5 1q27 2 54 7t52 13 46 17 39 19q18 11 34 23.5t31 28.5q13 13 20 20.5t11 12.5q5 6 8 11.5t7 13.5q5 10 8 20t4 22 0.5 26.5-2.5 34.5q-1 9-2.5 21t-2.5 23q-1 12-2.5 23t-2.5 19-2 18.5-3 20.5q-1 11-2.5 21t-2.5 18-2 17-3 19q-1 9-2 17.5t-1 14.5q-1 16-3 23.5t-4 7.5q-1 0-2-3t-2-10q-2-15-15-78t-15-68q-1-3-3-12.5t-4-21.5q-1-6-2.5-12.5t-2.5-12.5q-2-7-3-13t-2-10-2.5-10.5-2.5-15.5q-2-8-4-16.5t-3-17.5q-8-36-13-52.5t-8-16.5q-1 0-30.5 28t-69.5 67l-98 96-7-15q-2-7-5-16.5t-4-16.5-3-14-3-10q-2-2-6.5-17.5t-9.5-34.5q-3-9-5.5-19t-5.5-19q-2-9-4-16t-3-11q-2-4-3.5-10t-2.5-12q-2-7-3.5-13.5t-3.5-11.5q-6-24-12.5-26t-20.5 14q-14 15-42.5 47t-32.5 36q-1 2-9 10.5t-17 18.5-17.5 20-12.5 14q-3 4-13 15t-21 23-20 22-10 12q-2 1-9 8.5t-14 16.5q-16 17-18.5 15zM342.5 939.5q-1.5-10.5 2.5-22.5t10.5-23.5 10.5-19.5q3-7 0-0.5t0 0.5q10-23 20-45.5t20-45.5q10-22 19.5-45t19.5-45q2-4 7-16.5t12-9.5q15 6 15 8.5t-5 17.5l-16 44q-3 10-7 21l-8 22q-5 17-11.5 33t-13.5 32q-6 17-12.5 33t-12.5 33q-1 5-4.5 14.5t-8.5 18.5q-4 8-10.5 13t-14.5 0q-11-7-12.5-17.5zM693.5 535.5q1.5-7.5 8.5-12.5 4-2 8.5-4t6.5-2q7 0 15.5 9.5t8.5 18.5q0 5 8.5 16t28.5 32q7 8 18 19t23 24 24.5 26 23.5 24 24 24.5 25 26.5q13 14 24.5 25.5t19.5 20.5q20 20 30.5 31.5t14.5 17.5q4 7 4 10.5t-3 7.5q-2 4-6.5 8t-8.5 5h-6q-6 0-16-10.5t-37-42.5q-4-5-9-10.5t-9-10.5q-5-6-9-10.5t-7-8.5q-3-3-7.5-8t-9.5-11q-6-6-11-12.5t-10-12.5q-5-5-11-12l-12-14t-11.5-13.5-10.5-11.5q-13-15-23.5-27.5t-19.5-22.5q-8-10-15.5-18.5t-14.5-16.5q-9-11-15.5-16t-11.5-5q-8 0-13.5-5.5t-7.5-12.5q-2-8-0.5-15.5z" />
<glyph unicode="&#x2b;" glyph-name="uni2B" data-tags="uni2B" d="M215 101l293 173-293 166v-339zM215 440l294 172 290-164v340l-287-170v344l-297-174v-348zM512-62l287 173v337l-287-173v-337z" />
<glyph unicode="&#x2c;" glyph-name="rss" data-tags="rss" d="M2 73q0 28 10.5 52.5t29.5 43.5q18 18 43 29t53 11 53-11 43-29q19-19 29.5-43.5t10.5-52.5-10.5-53-29.5-43q-18-19-43-29.5t-53-10.5-53 10.5-43 29.5q-19 18-29.5 43t-10.5 53zM2 415q48 0 94-9t89-27 82-44 72-60q34-34 60-73t44-82 27-89.5 9-94.5h196q0 140-53 263t-144 214q-91 92-214 145.5t-262 53.5v-197zM2 763q171 0 321-65t261-177q112-113 177-263.5t65-321.5h196q0 211-80 397.5t-219 325.5q-138 139-324 220t-397 81v-197z" />
<glyph unicode="&#x2d;" glyph-name="uni2D" data-tags="uni2D" d="M67-29q-1-7 1-13.5t6-11.5 10-7.5 13-2.5h176q10 0 18.5 3t15.5 9q6 6 10.5 13.5t6.5 17.5l40 255q2 9 6.5 17t11.5 14q6 6 14.5 9t18.5 3h116q91 0 163 22t125 66q52 44 85 109.5t47 152.5q6 39 6 73t-5 64q-6 29-18 54.5t-30 46.5q-20 23-47 41t-61 30q-34 11-74 17.5t-87 6.5h-368q-10 0-18.5-3.5t-15.5-9.5q-6-6-10.5-13.5t-6.5-17.5zM403 482l39 247q1 6 4 10.5t7 8.5q4 3 9 5t11 2h25q25 0 49-0.5t45-4.5q21-3 38.5-11t29.5-22q7-8 12-19t7-23q2-13 2-28t-3-33q-8-49-29-76t-51-39q-31-13-66.5-15t-72.5-2h-56z" />
<glyph unicode="&#x2e;" glyph-name="odnoklassniki" data-tags="odnoklassniki" d="M204 375q0-15 9-28 10-13 27-26.5t42-28.5q20-14 44-23.5t49-15.5q24-6 46.5-9.5t41.5-5.5l-125-125q-19-20-37-37.5t-32-31.5q-9-9-13-20t-4-22q0-12 4-23t13-19l7-7q9-9 20-13.5t22-4.5 22 4.5 20 13.5l153 152 152-152q9-9 20-13.5t22-4.5q12 0 23 4.5t19 13.5l7 7q9 8 13.5 19t4.5 23q0 11-4.5 22t-13.5 20l-194 194q19 2 41.5 5.5t46.5 9.5q24 7 48 16t44 23q25 15 42 28.5t27 26.5q9 13 9 28t-9 34q-6 11-16 20.5t-24 12.5-31.5-1-37.5-20q-55-43-122.5-50.5l-67.5-7.5-67.5 7.5t-122.5 50.5q-20 16-37.5 20t-31.5 1-24-12.5-16-20.5q-9-19-9-34zM253 700q0-53 20.5-100.5t55.5-82.5 82-55.5 101-20.5 101 20.5 82 55.5 55.5 82.5 20.5 100.5q0 54-20.5 101t-55.5 82q-35 36-82 56t-101 20-101-20-82-56q-35-35-55.5-82t-20.5-101zM384 700q0 27 10.5 50t27.5 40q17 18 40.5 28t49.5 10 49.5-10 40.5-28q17-17 27.5-40t10.5-50q0-26-10.5-49.5t-27.5-40.5-40.5-27-49.5-10-49.5 10-40.5 27-27.5 40.5-10.5 49.5z" />
<glyph unicode="&#x31;" glyph-name="uni31" data-tags="uni31" d="M6 61l596-125v1024l-596-116v-783zM172 444q0 20 2.5 38.5t7.5 35.5q4 16 11.5 31t16.5 27q9 13 20 22.5t24 15.5 27 9.5 29 3.5 28.5-3 25.5-9 22.5-15.5 19.5-21.5 16-26 11-30q5-16 7-33.5t2-37.5-2-38.5-7-34.5q-5-17-12-31.5t-16-26.5q-10-13-21-22t-23-15q-12-7-26-10t-29-3-28.5 3-25.5 9-22.5 15-20.5 21q-9 12-16 26t-12 30q-4 16-6.5 33.5t-2.5 36.5zM238 448q0-13 1-24.5t3-21.5q3-10 6.5-19t8.5-16 10.5-13 11.5-9q6-4 13-6t15-2 15.5 2 13.5 5q6 4 11.5 9.5t10.5 12.5 8.5 16 5.5 19q3 10 4 21.5t1 24.5-1 25-4 22q-2 11-5.5 20t-7.5 16q-5 7-10.5 13t-11.5 9q-6 4-13 6t-15 2-15.5-2-14.5-6q-6-4-11.5-9.5t-10.5-13.5-8.5-16.5-6.5-18.5q-2-11-3-22t-1-24zM639 195v272l64-43q7-5 13.5-2.5l6.5 2.5q-8-5 143.5 95.5l151.5 100.5v-368q0-15-4.5-25.5t-11.5-17.5q-8-7-17.5-10.5t-20.5-3.5h-325zM639 542l70-44h8l301 203q0 9-3.5 16.5t-8.5 13.5q-6 5-12 8t-11 3h-344v-200z" />
<glyph unicode="&#x32;" glyph-name="uni32" data-tags="uni32" d="M-2 783q0-26 10-49.5t28-40.5q17-17 40-27t50-10q26 0 49.5 10t40.5 27 27 40.5 10 49.5q0 27-10 50t-27 40q-17 18-40.5 28t-49.5 10q-27 0-50-10t-40-28q-18-17-28-40t-10-50zM381 448q0-27 10-50t27-41q17-17 40.5-27t49.5-10 49.5 10 40.5 27q18 18 28 41t10 50q0 26-10 49t-28 41q-17 17-40.5 27t-49.5 10-49.5-10-40.5-27q-17-18-27-41t-10-49zM381 783q0-26 10-49.5t27-40.5 40.5-27 49.5-10 49.5 10 40.5 27q18 17 28 40.5t10 49.5q0 27-10 50t-28 40q-17 18-40.5 28t-49.5 10-49.5-10-40.5-28q-17-17-27-40t-10-50zM767 112q0-27 10-50t28-40q17-18 40-28t50-10q26 0 49.5 10t40.5 28q17 17 27 40t10 50q0 26-10 49.5t-27 40.5-40.5 27-49.5 10q-27 0-50-10t-40-27q-18-17-28-40.5t-10-49.5zM767 448q0-27 10-50t28-41q17-17 40-27t50-10q26 0 49.5 10t40.5 27q17 18 27 41t10 50q0 26-10 49t-27 41q-17 17-40.5 27t-49.5 10q-27 0-50-10t-40-27q-18-18-28-41t-10-49zM767 783q0-26 10-49.5t28-40.5q17-17 40-27t50-10q26 0 49.5 10t40.5 27 27 40.5 10 49.5q0 27-10 50t-27 40q-17 18-40.5 28t-49.5 10q-27 0-50-10t-40-28q-18-17-28-40t-10-50z" />
<glyph unicode="&#x33;" glyph-name="uni33" data-tags="uni33" d="M0 404q0-53 20.5-100t55.5-83q35-35 82-55t101-20q29 0 57 6t53 18 47 29 40 38l59-82 50 85q18-21 40-38.5t48-30.5q25-12 53.5-19t58.5-7q54 0 101 20.5t82 55.5q35 36 55.5 83t20.5 100q0 24-4 46t-12 43q-7 20-18 39t-24 36q3 11 8 22.5t10 22.5q6 12 12.5 22t14.5 17h-170q-2 0-4 0.5t-5 1.5q-3 5-18.5 21t-52.5 33q-36 16-97.5 29t-155.5 13q-208 0-267.5-49l-59.5-49h-177q9-7 16-18.5t13-23.5q6-13 11-26t8-24q-12-16-21.5-34.5t-16.5-37.5q-7-20-10.5-41t-3.5-43zM51 404q0 43 16 81t45 66q28 28 66 44.5t81 16.5 80.5-16.5 65.5-44.5q29-28 45-66t16-81-16-81-44-66q-29-28-66.5-44.5t-80.5-16.5-81 16.5-66 44.5q-29 28-45 66t-16 81zM134 404q0-12 2.5-24t7.5-24q4-11 11-21t16-19 19-15.5 21-11.5q11-4 23-6.5t25-2.5q25 0 48 9.5t39 26.5q17 17 27 39.5t10 48.5-10 48.5-27 39.5q-16 17-39 26.5t-48 9.5q-13 0-25-2.5t-23-6.5q-11-5-21-11.5t-19-15.5-16-19-11-21q-5-12-7.5-24t-2.5-24zM172 404q0 9 2 17t5 16 8 15 11 13 13 10.5 15 8.5q7 3 15.5 4.5t17.5 1.5q17 0 33-6.5t28-18.5q11-12 18-27.5t7-33.5-7-33.5-18-27.5q-12-12-28-18.5t-33-6.5q-9 0-17.5 1.5t-15.5 4.5q-8 4-15 8.5t-13 10.5-11 13-8 15-5 16-2 17zM217 404q0 9 3 16.5t9 13.5q6 5 13.5 8.5t16.5 3.5q8 0 16-3.5t13-8.5q6-6 9.5-13.5t3.5-16.5-3.5-16.5-9.5-13.5q-5-5-13-8.5t-16-3.5q-9 0-16.5 3.5t-13.5 8.5q-6 6-9 13.5t-3 16.5zM262 648l55.5 38t188.5 38h17q133 0 188.5-38l55.5-38-102.5-13.5q-102.5-13.5-149.5-187.5-48 174-150.5 187.5zM558 404q0 43 16 81t44 66q29 28 66.5 44.5t80.5 16.5 81-16.5 66-44.5q29-28 45-66t16-81-16-81-45-66q-28-28-66-44.5t-81-16.5-80.5 16.5-66.5 44.5q-28 28-44 66t-16 81zM641 404q0-12 2.5-24t7.5-24q4-11 11-21t16-19q8-9 18.5-15.5t21.5-11.5q11-4 23-6.5t24-2.5q26 0 48.5 9.5t39.5 26.5 27 39.5 10 48.5-10 48.5-27 39.5-39.5 26.5-48.5 9.5q-12 0-24-2.5t-23-6.5q-11-5-21.5-11.5t-18.5-15.5q-9-9-16-19t-11-21q-5-12-7.5-24t-2.5-24zM679 404q0 9 2 17t5 16 7.5 15 10.5 13q7 6 14 10.5t14 8.5q8 3 16.5 4.5t16.5 1.5q18 0 34-6.5t27-18.5q12-12 19-27.5t7-33.5-7-33.5-19-27.5q-11-12-27-18.5t-34-6.5q-8 0-16.5 1.5t-16.5 4.5q-7 4-14 8.5t-14 10.5q-6 6-10.5 13t-7.5 15-5 16-2 17zM723 404q0 9 3.5 16.5t9.5 13.5q5 5 13 8.5t16 3.5q9 0 16.5-3.5t13.5-8.5q6-6 9-13.5t3-16.5-3-16.5-9-13.5q-6-5-13.5-8.5t-16.5-3.5q-8 0-16 3.5t-13 8.5q-6 6-9.5 13.5t-3.5 16.5z" />
<glyph unicode="&#x34;" glyph-name="uni34" data-tags="uni34" d="M-1 61h105l117 179h582l117-179h105l-513 773zM288 329l224 338 224-338h-448z" />
<glyph unicode="&#x35;" glyph-name="uni35" data-tags="uni35" d="M184 591q0-36 5-70t14-65q10-31 23.5-59t30.5-52q21-28 46.5-49t54.5-35q30-15 63.5-22t70.5-7q38 0 74 8t67 23q32 15 58.5 36.5t45.5 48.5v-107q0-58-13.5-101t-41.5-71q-29-28-72.5-42t-102.5-14q-50 0-88.5 10.5t-63.5 31.5q-26 21-40 52t-16 71l-1 24h-72l1-23q2-58 21.5-103t55.5-76q36-32 88-48t119-16q75 0 132.5 19.5t96.5 58.5 59 96 20 131v698h-82v-102q-19 29-44.5 51.5t-55.5 38.5q-29 15-63 23t-70 8q-72 0-131-26.5t-101-74.5-65-116-23-150zM266 591q0 50 13 102t42 94q30 42 77.5 68.5t115.5 26.5q24 0 46-4t42-12q20-9 38.5-21t33.5-27q20-21 35.5-46t26.5-54q10-29 15.5-61t5.5-66q0-53-15-103.5t-46-90.5-79-64.5-114-24.5q-54 0-98 20t-75 57-47.5 89.5-16.5 116.5z" />
<glyph unicode="&#x36;" glyph-name="uni36" data-tags="uni36" d="M0 383q-1 7 0.5 14t5.5 14q6 12 17 19.5t24 9.5q12 3 25 0.5t24-11.5q6-5 10.5-11.5t5.5-15.5q0-3 1.5-4t4.5-1l367 5q5 0 5.5-0.5t-0.5-4.5q-1-5-1-9.5t1-8.5q0-4-1-4.5t-4-0.5l-363 4q-4 0-7.5-0.5t-5.5-3.5q-3-2-5-6t-5-7-6-5.5-7-4.5q-3-2-7-4t-8-3q-7-2-15-2t-16 1q-8 2-15 6t-13 9q-5 6-8 12t-4 13zM357 524q1-5 3.5-9.5t5.5-7.5 7-5 8-3 8-0.5 8 2.5q2 0 4 1.5t4 1.5 3.5-1.5l2.5-2.5 88-68q2-2 3-1.5t2 2.5q3 4 5.5 7.5t6.5 6.5q3 3-1 5.5t-6 3.5l-84 60q-4 2-7.5 4.5t-0.5 8.5v2q-1 11-8 18t-16 9q-9 1-18-2.5t-15-12.5q-2-5-2.5-10t-0.5-9zM388 287q0 11 0 4t0-4zM388 287q-1-9 3.5-17t10.5-13q7-5 16-7t17 0q7 2 12.5 6t9.5 10q4 5 5.5 12t0.5 14q-1 2 0 3l2 2q6 3 12.5 7t12.5 7q6 4 12 7.5t12 7.5q3 1 1.5 3t-3.5 3q-2 3-4.5 5.5t-3.5 5.5q-2 2-3 2t-3-1q-5-4-10.5-7.5t-11.5-6.5q-5-4-10.5-7t-10.5-7q-2-1-3.5-1t-3.5 1q-4 4-9 6t-10 2q-5 1-10 0t-10-4q-5-2-9-5.5t-6-7.5q-3-5-4.5-10t-1.5-10zM511 389q0-9 2.5-18t7.5-17q5-7 12-12.5t14-9.5q8-4 17-6t17-2q-1 0 0-0.5t5-0.5l7 1h-2q11 1 22 4.5t21 10.5q9 6 16.5 15t11.5 20q3 10 3 20.5t-3 19.5q-4 10-10 18.5t-15 14.5q-14 9-30 11.5t-32-0.5-30.5-12-22.5-23q-5-8-8-16.5t-3-17.5zM541.5 604.5q-1.5-12.5 1.5-23.5 4-12 12.5-21t22.5-14q2 0 3-1.5t1-4.5l-4-57q-1-3 0.5-4t4.5-1q5 1 9.5 1t8.5-1q3 0 4 1t1 4q0 7-0.5 14.5t-0.5 14.5-0.5 14-0.5 15q0 5 4.5 6t8.5 3 8 5 7 6q3 4 5.5 8t3.5 8q2 4 3 8.5t1 9.5q0 8-2.5 16t-6.5 15q-5 6-11.5 11t-14.5 8-16 3-16-2q-7-2-14-6.5t-12-11.5q-9-11-10.5-23.5zM649 325.5q0-0.5 2-1.5 4-3 8-5.5t9-4.5q3-2 2.5-5t-0.5-6q0-2 0.5-5t1.5-6q3-5 8-8.5t11-4.5q5 0 10 1.5t8 4.5q4 4 6 8.5t2 9.5q0 6-2 11t-6 8-8.5 4.5-10.5 0.5-10 0.5-8 5.5l-3 3q-2 3-4 3t-5-3q-2-2-4.5-4t-4.5-4-2-2.5zM661.5 453q2.5-2 4.5-4 2-3 4-5t3-5q2-3 4.5-1.5t4.5 2.5l121 78q2 0 4.5-1.5t3.5-2.5q5-3 10.5-4t10.5 0q6 0 11 2t9 5q11 9 13.5 20.5t-1.5 21.5q-3 11-12.5 18.5t-22.5 7.5q-9 0-16.5-4t-12.5-10-7-14 0-17q0-3-0.5-4.5t-3.5-2.5q-16-9-32-18.5t-32-18.5q-15-10-31-19.5t-31-19.5q-4-2-1.5-4zM685 375.5q1-0.5 3-0.5l239 4q4-1 5.5-6.5t3.5-8.5q2-4 5.5-7.5t7.5-6.5q3-3 7.5-5t8.5-3q5-1 9.5-1.5t9.5 0.5q8 1 15.5 5t12.5 11q6 6 9 14t3 16q0 9-3 17t-8 15q-6 6-13 10t-15 6q-9 1-17.5-1t-16.5-6q-7-4-12-11t-8-16q0-2-1.5-3t-3.5-1l-238 3q-2-1-1.5-4t0.5-5q0-3-0.5-6t-1.5-6 0-3.5zM829 585v0z" />
<glyph unicode="&#x37;" glyph-name="uni37" data-tags="uni37" d="M38.5 857q-0.5 6 0.5 10t6.5 12 11.5 12 14 7 19 7q14 7 43.5 18t61.5 21q32 9 60.5 14t41.5-2 23-24.5 18-41.5 15.5-51.5 16.5-53.5q7-24 14-48.5t14-47.5q7-24 13.5-46.5t13.5-44.5l120-382q7-4 13-1t12 5q33 10 67 20.5t69 21.5q34 11 69.5 22.5t72.5 22.5q14 5 27.5 9t25.5 7 22 3 17-5q5-3 9-8t7-11 5-12.5 4-12.5 2.5-13 2.5-15q1-5 3.5-9.5t3.5-10.5q0-2-1.5-3.5l-1.5-1.5q2-7 3.5-13t3.5-11q2-6 3-11.5t2-12.5q0-2-0.5-7.5t-1.5-11.5q0-5-2.5-14.5t-6.5-14.5q-1-1-3.5-1t-3.5-1q0-1 0.5-2t0.5-2q-1 0-3.5-0.5t-3.5-1.5q-2-7-19-14.5t-39-13.5q-21-7-42.5-12.5t-32.5-8.5l-318-100-46.5-15.5t-42.5-12.5q-19-5-34.5-7t-26.5 2q-15 6-28.5 29.5t-24.5 55.5q-12 32-22 67t-19 64q-14 46-26.5 88.5t-25.5 83.5q-12 41-25 81t-28 82q-2 4-3 8.5t-3 8.5q-1 2-3 3.5t-3 5.5q-5 12-8.5 26t-6.5 28q-4 14-8.5 28t-10.5 26q-2 3-4 4.5t-3 4.5q-2 7-4.5 14t-4.5 15q-3 8-5.5 16t-4.5 16q-5 15-10 28.5t-10 26.5q-6 14-11 29t-10 34q-2 9-4.5 17t-4.5 16q-1 7-1.5 13z" />
<glyph unicode="&#x38;" glyph-name="uni38" data-tags="uni38" d="M13 457q0-10 8-21 13-16 33-34.5t47-37.5q26-19 59-37t73-34q-42-144-4.5-228.5t99.5-113.5q61-29 119-4.5t55 98.5q0-3 0.5 64.5t0.5 128.5q8-2 14.5-3.5t12.5-3.5q0-61 0.5-125t0.5-61q-3-74 55-98.5t119 4.5q62 29 99.5 113.5t-4.5 228.5q39 16 72 34t59 37 46 37.5 33 34.5q7 11 7 21t-5 16-14 6.5-21-7.5q-3-2-5-4t-9-4v396q0 21-6.5 39t-18.5 31q-11 14-27 22t-35 8h-718q-19 0-36.5-8t-30.5-22q-14-13-22-31t-8-39v-397q0 2-3.5 4.5t-6.5 4.5q-11 8-20 7.5t-14-6.5q-4-6-4-16zM123 431v384q0 26 3.5 44t12.5 29q8 11 23.5 15.5t39.5 4.5h635q23 0 37.5-5t22.5-17q8-11 11-28.5t3-42.5v-381q-50-28-96.5-41t-87.5-18q-41-4-75-3t-58 2q-18 1-30-2t-20-10q-7-6-11-15.5t-4-21.5q-5 3-9 6.5t-8 6.5q-4 4-8.5 8t-8.5 8q-2 1-3 2.5t-3 2.5q-4 4-9 7t-11 5-14 3-18 0q-24-1-59-2t-76 3-87 16.5-92 39.5zM258 536q0-24 9.5-44.5t25.5-35.5 38-24 47-9 47 9 38 24 25.5 35.5 9.5 44.5q0 23-9.5 43.5t-25.5 35.5q-16 16-38 24.5t-47 8.5-47-8.5-38-24.5q-16-15-25.5-35.5t-9.5-43.5zM542 537q0-24 9.5-44.5t25.5-35.5q16-16 38.5-24.5t47.5-8.5 47 8.5 38 24.5q17 15 26.5 35.5t9.5 44.5q0 23-9.5 44t-26.5 36q-16 15-38 24t-47 9-47.5-9-38.5-24-25.5-36-9.5-44z" />
<glyph unicode="&#x39;" glyph-name="uni39" data-tags="uni39" d="M10 171q1-9 7-12l12-6 112-52t111-52l224-104q9-4 17.5-6.5t17.5-2.5 18 2 18 6q56 26 112 52.5t113 52.5q56 26 112 52.5t112 52.5q3 1 5.5 2t4.5 3q8 5 8 11.5t-8 12.5l-8 4q-10 5-20 9.5t-20 9.5q-10 4-20 9t-20 9q-8 4-17 6t-17 2q-9 0-18-2t-17-6q-38-18-75.5-35.5t-75.5-34.5q-38-18-75.5-35.5t-75.5-35.5q-9-4-17.5-6t-17.5-2-17.5 2-17.5 6q-37 18-74.5 35.5t-75.5 34.5q-38 18-75.5 35.5t-74.5 34.5q-9 5-18.5 7t-18.5 2-18-2-18-6q-9-5-18.5-9t-18.5-9q-10-4-19-8.5t-19-8.5q-6-3-12.5-6.5t-6.5-11.5zM10 447q1-9 7-12l12-6 112-52t111-52l224-104q9-4 17.5-6.5t17.5-2.5 18 2 18 6q56 26 112 52.5t113 52.5q56 26 112 52.5t112 52.5q3 1 5.5 2t4.5 3q8 5 8 11.5t-8 12.5l-8 4q-10 5-20 9.5t-20 9.5q-10 4-20 9t-20 9q-8 4-17 6t-17 2q-9 0-18-2t-17-6q-38-18-75.5-35.5t-75.5-34.5q-38-18-75.5-35.5t-75.5-35.5q-9-4-17.5-6t-17.5-2-17.5 2-17.5 6q-37 18-74.5 35.5t-75.5 34.5q-38 18-75.5 35.5t-74.5 35.5q-9 4-18.5 6t-18.5 2-18-2-18-6q-9-5-18.5-9t-18.5-9q-10-4-19-8.5t-19-8.5q-6-3-12.5-6.5t-6.5-11.5zM10 724.5q0-5.5 6-10.5 3-2 7-4l8-4q55-26 111-52t111-52q56-26 111.5-52t111.5-52q9-4 18-6t18-2 18 2 18 6q55 26 111 52l112 52t111.5 52 111.5 52q4 2 7.5 4t7.5 5q5 4 5 9.5t-5 9.5q-4 3-7.5 5t-7.5 4q-56 26-111.5 51.5t-110.5 51.5q-56 26-111.5 52t-110.5 52q-10 4-19 6.5t-19 2.5q-9 0-18.5-2t-18.5-7q-56-26-111.5-52t-111.5-52q-55-26-111-52t-111-52q-4-1-7.5-3t-6.5-4q-6-5-6-10.5z" />
<glyph unicode="&#x3a;" glyph-name="uni3A" data-tags="uni3A" d="M0 39l212 29q32-27 68.5-49t77.5-37q40-16 83.5-24t89.5-8q102 0 192 39t157 107q66 67 105 158t39 194-39 193.5-105 157.5q-67 68-157 107t-192 39q-103 0-192.5-39t-156.5-107q-67-67-106-157.5t-39-193.5q0-28 3-55t9-53q6-25 14-50t19-49zM338 202v491h186q66 0 117-17.5t86-49.5 53.5-77 18.5-99v-1q0-54-18.5-99.5t-54.5-77.5q-35-33-86.5-51.5t-117.5-18.5h-184zM471 325h55q31 0 56.5 7.5t43.5 23.5q19 15 29.5 38t10.5 53v1q0 30-10.5 53t-29.5 38q-18 16-43.5 23.5t-56.5 7.5h-55v-245z" />
<glyph unicode="&#x3b;" glyph-name="vk" data-tags="vk" d="M0 703q0-15 3.5-29t8.5-27q6-13 12-25.5t12-24.5l16-32t17-32q8-16 16.5-31.5t17.5-30.5q1-1 2-2.5t2-2.5q2-4 4-7.5t4-6.5q1-2 2-3.5t2-3.5q2-3 4-6.5t5-7.5q0-1 1-2.5t2-2.5q3-5 6-9.5t6-9.5h1q3-5 6-9.5t6-9.5q1-1 2-2.5t2-2.5q2-4 4.5-7t4.5-6q1-2 2.5-3.5t2.5-3.5q2-3 4.5-6.5t4.5-6.5q1-1 2-2.5t2-2.5q4-5 7.5-9.5t6.5-9.5q24-29 49.5-57t57.5-51 72.5-38.5 91.5-21.5q17-1 36-2.5t36-0.5q18 1 31.5 5.5t19.5 14.5q7 12 8 30.5t2 36.5q2 18 8 32t22 16q12 2 22.5-4t20.5-16q9-10 17-21t15-18q11-12 23.5-25t26.5-24q15-11 31.5-19.5t35.5-11.5h5q17 7 48.5 5.5t62.5-1.5 54.5 5.5 26.5 27.5q1 7-2.5 16.5t-9.5 18.5q-5 9-11 17.5t-11 13.5q-11 15-22 27l-22 24t-23 23.5-26 24.5l-14 12t-13 13q-5 7-9.5 14.5t-4.5 15.5q-1 11 3.5 21.5t11.5 20.5q6 10 13.5 19t12.5 16q1 2 2.5 3.5l3.5 3.5q0 1 1 2l1 1q1 2 2 3l2 2q0 1 1 2l2 2q0 1 0.5 1.5l1.5 1.5t2 2.5 2 2.5q10 12 20 24.5t19 24.5q10 13 19.5 26.5t18.5 28.5q3 6 9 17t11 23q5 13 7.5 25t-1.5 19q-4 9-16.5 12.5t-28.5 4.5q-16 0-32.5-1t-29.5-1q-16 0-32.5 1t-31.5 2q-16 0-29.5-1t-24.5-5q-7-2-13-10t-11-19q-4-10-8.5-21t-8.5-19q-6-13-11.5-24.5t-10.5-22.5q-6-10-11.5-20t-11.5-20q0-1-1-2.5t-2-3.5h-0.5t-0.5-1q-1-1-1.5-2.5t-1.5-2.5l-1-1q-2-3-3.5-5.5t-3.5-4.5v-1l-1-1q0-1-1-2t-1-2q-1 0-1.5-1t-1.5-2q0-1-1-2l-1-1q-1-2-2-3t-1-2l-1.5-1.5t-0.5-1.5q-2-1-3-3t-3-4q-5-7-11-15t-12-15q-7-7-14.5-12t-17.5-6l-1.5 1.5t-1.5 0.5l-3 3h-1q0 1-0.5 1.5l-3.5 3.5v1q-1 0-1 0.5v0.5q-1 0-1 0.5v0.5l-1 1v1q-1 0-1 0.5v0.5l-0.5 0.5t-0.5 1.5l-1 1-1 2v1q-1 1-1 1.5t-1 1.5v1l-1 2v2l-0.5 0.5t-0.5 1.5v1q0 1-0.5 1.5l-0.5 0.5v4l-1 1v4q0 1-0.5 1.5l-0.5 0.5v10q-1 1-1 2v7q0 1-0.5 1.5t-0.5 1.5v4l1 1v13q1 1 1 2v19q1 4 1 8v7q1 17 3 35.5t2 36.5q1 18-1 34.5t-9 28.5-22 17.5-34 7.5-39.5 1.5-38.5-0.5q-22 0-41-1t-35-5-28-11.5-18-20.5q8-5 15.5-8t14.5-6 12.5-7.5 9.5-12.5q5-8 7.5-20t3.5-27 1.5-30.5 0.5-31.5q0-1-0.5-2.5t-0.5-3.5q0-14-1-30t-3-31q-3-15-8-25t-14-12-17 3-16 13q-7 8-13.5 17.5t-10.5 16.5q-2 2-3.5 4.5t-3.5 4.5q0 1-0.5 1.5l-1.5 1.5q-1 2-2 3.5t-2 3.5q-1 0-1.5 1t-0.5 2q-1 1-2 3t-3 4l-0.5 0.5t-0.5 1.5q-1 2-2.5 4t-3.5 5q-7 11-13.5 22t-13.5 23l-26 52q-4 9-8.5 19.5t-9.5 20.5q-5 9-10 16.5t-10 10.5q-9 4-21.5 5.5t-26.5 1.5q-15 0-29-1t-26-1q-14 0-27.5 0.5t-25.5 0.5q-13-1-24-3.5t-19-9.5z" />
<glyph unicode="&#x3d;" glyph-name="uni3D" data-tags="uni3D" d="M0-55v389t1 130q0 34 5 67t15 65 24 62.5 33 59.5q30 47 66 85t79 67q42 30 90.5 50t103.5 31q17 3 34 5t33 3q17 1 34 0.5t34-1.5q43-3 83.5-13t78.5-26 73-38.5 67-51.5q27-24 50-50.5t41-56.5q19-29 33.5-61.5t24.5-66.5q4-13 7-25.5t6-25.5q2-13 3.5-26t3.5-26q2-27 1.5-53t-3.5-52-9-51.5-14-50.5q-21-57-50-105.5t-67-87.5-85.5-70-103.5-53q-22-8-44.5-14.5t-45.5-10.5-46-6-47-2q-27 1-54 1h-54q-28 0-55-0.5t-54-0.5q-10 0-12 2t-2 12v252t0.5 126 0.5 127q0 40 14.5 77.5t40.5 67.5q25 30 60 51t75 28q48 8 93-1.5t81-33.5q37-25 63-63t36-85q11-48 0.5-94.5t-36.5-84.5-65.5-64.5-86.5-34.5q-22-3-43-3t-41 3q-21 4-40.5 11.5t-38.5 18.5q-1 1-3 2t-5 2v-86q0-20-0.5-39t-0.5-39q0-5 2.5-8t7.5-4q54-16 105.5-19t99.5 8q49 11 94 35t88 62q26 23 46.5 49.5t35.5 55.5 25 61 15 67q10 72-6 141t-53 126q-38 58-94 100.5t-127 63.5q-81 23-160.5 11.5t-146.5-50.5q-66-39-114.5-103t-68.5-146q-2-11-4-21.5t-3-21.5q-2-11-2.5-22t-0.5-21q0-63-0.5-126t-0.5-125q0-63 0.5-126t0.5-125q0-10-2-12t-11-2q-12 0-24.5 0.5t-24.5 0.5-24.5-0.5-24.5-0.5q-6 0-8 2t-2 8z" />
<glyph unicode="&#x40;" glyph-name="mail" data-tags="mail" d="M0 106h1024v614l-479-391q-3-3-7-5.5t-8-3.5q-5-2-9.5-2.5t-8.5-0.5-8.5 0.5-9.5 2.5q-4 1-8 3.5t-7 5.5l-479 391v-614zM79 789l405-331q6-5 13-8t15-3 15 3 13 8l405 331h-866z" />
<glyph unicode="&#x41;" glyph-name="blogger" data-tags="blogger" d="M0 246q0-64 25-120.5t67-98.5 95.5-66.5 109.5-24.5h412q62 0 119.5 24.5t100.5 67.5q44 42 69.5 99.5t25.5 121.5v246q0 17-3.5 31t-11.5 24-21.5 15-34.5 5h-45q-17 0-29.5 5t-21.5 14q-8 8-12.5 19t-4.5 23v29q0 55-27.5 108.5t-70.5 96.5q-43 42-96.5 68.5t-104.5 26.5h-217q-68 0-127-25.5t-103-69.5-69-103-25-127v-389zM265 258q0 12 4.5 22.5t12.5 18.5q9 7 19.5 11t22.5 4h370q12 0 23-4t19-11q8-8 12.5-18.5t4.5-22.5-4.5-22.5-12.5-17.5q-8-8-19-12t-23-4h-370q-12 0-23 4t-19 12q-8 7-12.5 17.5t-4.5 22.5zM265 632q0 12 4.5 23t12.5 20q9 8 19.5 13t22.5 5h186q13 0 23.5-5t18.5-13q8-9 13-20t5-23-5-23.5-13-19.5q-8-9-19-14t-23-5h-186q-12 0-23 5t-19 14q-8 8-12.5 19.5t-4.5 23.5z" />
<glyph unicode="&#x42;" glyph-name="uni42" data-tags="uni42" d="M-2 693q4 38 15 72.5t27 67.5q17 33 38 64.5t44 62.5h902v-708q-65-40-136-64.5t-144-35.5q-59.5-9-120-9-13.5 0-27.5 0.5-74.5 2.5-146.5 15.5-36-18-70.5-40t-68.5-45q-33-23-67-45.5t-69-42.5q2 27 4.5 54.5t6.5 54.5q3 28 6 55.5t6 54.5q0 11 1.5 23.5t1.5 23.5q-1 12-5.5 22t-16.5 17q-45 35-81 81t-61 98q-24 52-34.5 108.5-6.5 36-6.5 72.5 0 21 2 42zM202 621q-0.5-6.5-0.5-13.5 0-25 6-49.5 7.5-31 22.5-59 15-27 36-51.5t46-43.5q52-40 115-62t129-25q14.5-1 28.5-1 51.5 0 103 11.5 65.5 14.5 123.5 46.5 31 18 59 42.5t49 54.5 33.5 65 13.5 72v7q0 29.5-7.5 58-8.5 32-24.5 60-16 29-38.5 53.5t-49.5 43.5q-29 22-62.5 37.5t-68.5 25.5q-36 10-72.5 14-29 3-58.5 3h-15q-40-1-80.5-9t-78.5-23-72-38-62-53q-16-16-29.5-35.5t-23.5-40.5-15.5-43.5-5.5-46.5z" />
<glyph unicode="&#x43;" glyph-name="uni43" data-tags="uni43" d="M0 456q0-16 4-30t12-26 19-21 24-15q-1-6-2-11.5t-2-11.5q0-6-0.5-12t-0.5-12q0-61 35.5-115.5t97.5-94.5q62-41 145-64t178-23q94 0 177 23t145 64q62 40 98 94.5t36 115.5q0 6-0.5 11.5t-1.5 11.5q0 6-1 11.5t-2 10.5q14 6 25.5 15t19.5 22q9 12 13.5 26.5t4.5 30.5q0 21-7.5 39t-21.5 32-32 21.5-39 7.5q-12 0-23-2.5t-21-7.5-18.5-12-15.5-16q-30 22-66 39t-76 30q-41 12-85.5 19t-91.5 9l75 219 185-43q2-1 3.5-1h3.5q1-16 7-30t17-24q11-11 25-17t30-6q17 0 31.5 6.5t24.5 17.5q11 10 17.5 24.5t6.5 31.5q0 16-6.5 30.5t-17.5 25.5q-10 11-24.5 17t-31.5 6q-12 0-23-3.5t-20-9.5q-10-6-17-15t-12-19q-1 1-2.5 1.5t-3.5 1.5l-201 47q-2.5 0.5-5 0.5-4.5 0-8.5-2-6.5-3.5-8.5-10.5l-85-249q-46-1-89-8t-83-20q-39-12-74-28.5t-64-37.5q-7 9-15.5 15.5t-18.5 11.5q-10 4-20.5 6.5t-22.5 2.5q-21 0-39-7.5t-32-21.5-21.5-32-7.5-39zM277 375q0 15 6 28.5t16 23.5q11 11 24.5 17t28.5 6 28.5-6 23.5-17q10-10 15.5-23.5t5.5-28.5-5.5-28.5-15.5-23.5-23.5-15.5-28.5-5.5-28.5 5.5-24.5 15.5q-10 10-16 23.5t-6 28.5zM343 180q0 5 3 9 4 3 8.5 3t8.5-3q11-11 25.5-19.5t33.5-13.5q18-6 40.5-8.5t48.5-2.5q27 0 49.5 2.5t41.5 8.5q19 5 33.5 13.5t25.5 19.5q4 3 8.5 3t8.5-3q3-4 3-9t-3-8q-13-13-29.5-22.5t-37.5-15.5q-20-7-45-10t-53-3q-30 0-55 3t-45 10q-21 6-37.5 15.5t-29.5 22.5q-3 3-3 8zM599 375q0 15 6 28.5t16 24.5q10 10 23.5 16t28.5 6 28.5-6 23.5-16q10-11 16-24.5t6-28.5-6-28.5-16-23.5-23.5-15.5-28.5-5.5-28.5 5.5-23.5 15.5-16 23.5-6 28.5z" />
<glyph unicode="&#x44;" glyph-name="uni44" data-tags="uni44" d="M-1 444q0-106 40.5-199.5t109.5-162.5q70-70 163-110t199-40 199 40 163 110q69 69 109.5 162.5t40.5 199.5q0 105-40.5 198.5t-109.5 162.5q-70 70-163 110.5t-199 40.5-199-40.5-163-110.5q-69-69-109.5-162.5t-40.5-198.5zM74 444v13q7 0 47.5 0.5t102.5 5.5q62 6 139.5 19t159.5 37q5-9 9.5-18.5t9.5-18.5q4-9 8.5-18.5t8.5-18.5q-5-1-9-2.5t-8-2.5q-85-28-149.5-74t-109.5-92q-45-45-69-81l-28-42q-26 29-47 62.5t-35 70.5q-15 37-22.5 77t-7.5 83zM83 533q11 51 32.5 97t53.5 85q31 40 70.5 71.5t85.5 52.5q4-6 20-28t38-56q23-34 50-77t54-92q-77-20-147-31t-124-16q-55-5-90.5-5.5t-42.5-0.5zM243 99q2 6 21.5 37t60.5 73q40 42 104 86t157 77h1t1 1q24-60 40.5-114t27.5-98q11-43 17-74.5t9-45.5q-20-8-40.5-14.5t-42.5-11.5q-21-4-43-6.5t-45-2.5q-38 0-74 6.5t-70 18.5-65.5 29-58.5 39zM408 869q13 3 25.5 5t25.5 4l26 2t26 1q42 0 81.5-7.5t76.5-22.5q36-14 69.5-34.5t62.5-45.5q-3-5-17.5-22t-41.5-40q-28-23-70-48.5t-100-47.5q-27 49-54.5 93t-49.5 78q-23 34-39 56.5t-21 28.5zM605 548q61 24 105.5 52.5t74.5 53.5q29 25 45 43t19 23q23-28 41.5-59.5t30.5-65.5q13-35 20-72t7-75q-5 1-33 6t-70 9-94.5 5h-13q-46 0-93.5-6-3 5-5 11t-5 11q-3 8-6.5 16t-7.5 16q-3 8-7 16zM670 393q46 7 88 7h10.5q46.5-1 83.5-7 37-5 61-11t30-8q-8-46-24-88t-40-79q-25-38-56-69.5t-68-56.5q-1 10-6.5 38t-15.5 69q-11 41-26 93.5t-37 111.5z" />
<glyph unicode="&#x45;" glyph-name="stumbleupon" data-tags="stumbleupon" d="M0 285v142h175v-140q0-11 4.5-21t11.5-17 17-11.5 21-4.5q12 0 21.5 4.5t17.5 11.5q7 7 11.5 17t4.5 21v331q1 46 19.5 86t49.5 70 72 47.5 87 17.5q47 0 88-17.5t71-47.5q31-30 49.5-70.5t19.5-86.5v-73l-104-31-70 33v63q0 11-4 21t-12 17q-7 7-17 11.5t-21 4.5-21-4.5-17-11.5q-8-7-12-17t-4-21v-327q-1-47-19-88t-49-71q-31-31-72.5-48.5t-88.5-17.5q-48 0-89.5 18t-72.5 49-49 72.5-18 88.5zM566 283v143l70-32 104 31v-144q0-11 4.5-21t11.5-18q8-7 17.5-11t21.5-4q11 0 21 4t17 11q7 8 11.5 18t4.5 21v146h175v-142q0-47-18-88.5t-49-72.5-73-49-89-18-88.5 17.5-72.5 48.5-49 72-19 88z" />
<glyph unicode="&#x46;" glyph-name="digg" data-tags="digg" d="M0 263v348h164v144h102v-492h-266zM102 345h62v184h-62v-184zM307 263v348h103v-348h-103zM307 652h103v103h-103v-103zM451 140v82h163v41h-163v348h266v-471h-266zM553 345h61v184h-61v-184zM758 140v82h164v41h-164v348h266v-471h-266zM860 345h62v184h-62v-184z" />
<glyph unicode="&#x47;" glyph-name="uni47" data-tags="uni47" d="M66 430q-2.5-24-2.5-47.5 0-63 17.5-122.5 23-83 77.5-153t135.5-115q80-45 168-54 25-2.5 49-2.5 62 0 121 16.5 82 24 152.5 78t115.5 134q51 93 58 221.5 2 34.5 2 68.5 0 92.5-14 180-18 120-52.5 210.5t-65.5 107.5q-11 6-32 7.5-5.5 0.5-12 0.5-17 0-38-3-29-3-63.5-11t-73.5-20q-68-46-129-104t-107-132q-47-73-75.5-162.5t-32.5-199.5q-2-5-11.5-2t-12.5 5q-18 35-30.5 71.5t-16.5 77.5q-2 19.5-2 39.5 0 23 2.5 47 4.5 45.5 19.5 98.5 6 10-6.5 19t-15.5 5q-3-3-11-12t-18-21q-11-12-22-27t-20-31q-46-80-55-168z" />
<glyph unicode="&#x48;" glyph-name="uni48" data-tags="uni48" d="M0 140v635h297q11 0 22-1t21-3q10-1 20-3t19-4 18-5 16-7q8-4 15.5-8.5t14.5-8.5l12-10t11-11 9.5-13 8.5-15q3-7 6-15.5t5-17.5q1-9 2-19.5t1-21.5q0-12-1-22.5t-4-20.5-7-19-9-17q-6-8-12.5-15.5t-14.5-13.5q-8-7-17.5-12.5t-20.5-10.5q15-4 27.5-10t23.5-13q11-8 20-16.5t16-19.5q7-10 12.5-21.5t8.5-24.5q4-13 5.5-26.5t1.5-28.5q0-12-1-23t-3-21q-2-11-5.5-20.5t-8.5-17.5q-5-9-10-17t-12-15q-6-7-13-13t-15-12l-16-10t-17-9-18.5-7.5-19.5-5.5q-10-3-20.5-4.5t-20.5-3.5q-10-1-20.5-1.5t-21.5-0.5h-305zM133 243h154q5 0 10 0.5t10 0.5q4 1 9 2t9 2q5 1 9.5 2.5t8.5 2.5l8 4t7 4q4 3 7 5.5t6 6.5q3 3 5.5 6.5t4.5 7.5 3.5 9 2.5 10 1.5 11 0.5 12q0 12-1.5 22.5t-5.5 18.5q-3 8-8 15t-12 12-15 9-17 6q-9 3-19 4t-22 1h-156v-174zM133 519h146q9 0 17.5 1t16.5 2q7 2 14 5t13 7 10.5 9.5 7.5 12.5 4.5 15 1.5 18q0 5-0.5 10t-1.5 10q-1 4-2.5 8t-3.5 8q-4 7-9.5 12.5t-11.5 9.5q-7 4-14.5 7t-16.5 5q-4 0-8.5 1t-9.5 1q-4 1-8.5 1.5t-9.5 0.5h-135v-144zM568 366q0 13 1 25t4 24q2 12 5 23.5t7 22.5 9.5 21.5 11.5 20.5q6 9 12.5 18t14.5 17 16.5 15 17.5 14q9 6 19 11.5t21 10.5q11 4 22 7.5t23 6.5q12 2 24.5 3t25.5 1q14 0 28-1t26-4q13-3 25-7t22-10q11-6 21-12.5t19-13.5q9-8 17-16.5t14-17.5q7-10 13-20t11-22q5-11 9-22.5t8-23.5q3-12 5-25t3-27q1-13 1-26t-1-24h-329q0-12 2.5-24.5t6.5-23.5q4-12 9.5-22.5t12.5-16.5q7-7 15.5-12t19.5-9q10-3 21.5-5t24.5-2q10 0 18.5 1.5t16.5 4.5q9 2 16.5 6t14.5 9q6 5 11.5 9t10.5 9q4 5 6.5 11t4.5 14h110q-6-23-14.5-41.5t-18.5-32.5q-10-15-22-26t-26-20-29-16-31-12q-17-5-35-7.5t-37-2.5q-14 0-26.5 1t-24.5 3q-12 3-23.5 6t-22.5 7q-11 5-21 10t-19 11q-10 7-18 14t-16 15q-7 8-14 16.5t-12 17.5q-6 10-11 20t-9 22q-4 11-7.5 22.5t-5.5 23.5-3 25-1 26zM666 663v61h256v-61h-256zM694 417h204q-1 11-3.5 21.5t-6.5 19.5-8.5 16.5-10.5 13.5q-5 6-12.5 11t-16.5 8-19.5 4.5-22.5 1.5q-7 0-14-0.5t-13-2.5q-6-1-12-3t-11-4q-5-3-9-6l-8-6t-7.5-6.5-6.5-7.5q-3-3-6-7t-5-8-3.5-8-2.5-8q-3-8-4-14.5t-2-14.5z" />
<glyph unicode="&#x49;" glyph-name="delicious" data-tags="delicious" d="M0-64v512h512v512h512v-512h-512v-512h-512z" />
<glyph unicode="&#x4a;" glyph-name="uni4A" data-tags="uni4A" d="M0 258q1-23 6-46h486v293h31q8 1 16 0.5t15-0.5q20-1 39-3.5t39-5.5q19-4 37.5-9.5t36.5-13.5q24-11 44-25t36-32 27.5-39.5 18.5-47.5q1-3 2-9t2-6h-170v13q0 15-0.5 29.5t-0.5 29.5v30t1 30q0 6-2.5 8.5t-8.5 4.5q-9 1-18 3t-18 3q-9 2-18.5 4t-18.5 3q-13 2-27.5 2.5t-22.5 0.5v-263h487q0 8 1 13.5t2 10.5q0 5 1 9.5t1 10.5v9.5q0 17-2.5 33.5-3.5 21-11.5 40-7 20-18.5 38t-25.5 35q-18 21-38 39t-42 33q-23 15-47 27t-49 23q-33 13-66.5 22.5t-68.5 15.5q-34 7-69 10t-70 3h-24v96q-16-1-31.5-3t-31.5-3q-17-2-34-3.5t-37-3.5v-50q0-9 0.5-18.5t0.5-18.5q0-6-2-8.5t-8-4.5q-26-5-50.5-12t-48.5-16q-25-9-48-20t-45-25q-18-10-34-22t-31-25q-14-13-27.5-28t-24.5-31q-14-21-23-42.5t-13-43.5q-4-18.5-4-37.5v-7.5zM189 314q2 27 17 56t39 54q23 24 53 41.5t60 20.5v-172h-169z" />
<glyph unicode="&#x4b;" glyph-name="uni4B" data-tags="uni4B" d="M85-64l427 1024 427-1024h-376v169l173 87-12 26-161-81v79l100 53-14 27-86-45v115h-102v-177l-86 61-16-25 102-71v-218h-376z" />
<glyph unicode="&#x4c;" glyph-name="uni4C" data-tags="uni4C" d="M40-6v910q0 11 2.5 19.5t6.5 15.5 9.5 12 12.5 9h10.5t11.5-1q6 0 12.5-1.5t12.5-5.5l834-458q16-9 24-20.5t8-22.5q0-12-8-23.5t-24-19.5l-212-114-622-345q-6-3-12.5-5.5t-12.5-3.5q-5-1.5-9.5-1.5h-2.5q-6 0.5-11 1.5-6 3-12 7.5t-9 11.5q-4 7-6.5 15.5t-2.5 19.5z" />
<glyph unicode="&#x4d;" glyph-name="uni4D" data-tags="uni4D" d="M142 217q0 13 0.5 25t0.5 25q1 6 4 12.5t7 11.5l98 116t97 115q49 58 98 115.5t98 115.5q1 1 2.5 3t3.5 4q-6-1-12.5-2t-11.5-2l-12-2t-11-2l-34-4t-35-3q-11.5-0.5-22.5-0.5h-11.5q-17 0.5-34 2.5-8 1-15.5 2t-14.5 3q-8 2-15 4.5t-14 6.5q-10 5-16.5 10t-9.5 12q-4 6-5.5 14.5t-0.5 19.5q1 9 2 17.5t3 16.5q3 9 6 17t7 15l30 48t11 15q3 5 6.5 8t7.5 3q2 0.5 4 0.5t4.5-0.5q4.5-1 9.5-4 9-5 18-9t18-7q10-3 19.5-5.5t19.5-4.5q19-4 38.5-6.5t39.5-3.5q19-1 39-1.5h13q13 0 26 0.5 27 0 53 1.5t52 4.5 51.5 7.5 51.5 9.5q2 0 4.5 0.5t4.5 0.5q8 0 12-4t3-12q-1-10-2.5-20t-2.5-20l-2-20t-3-20q0-5-2.5-10t-5.5-9q-55-63-110.5-127t-110.5-128q-56-64-111-127.5t-111-127.5q-4-5-6.5-9t-3.5-8q-2-4-2-9t1-12q7 0 14-0.5t14-1.5q17-2 32.5-6t31.5-10q15-7 29.5-14.5t28.5-15.5q12-7 23.5-14.5t23.5-14.5 24-13.5 24-13.5q11-6 22.5-12t23.5-12q12-5 24.5-9t25.5-7q15-3 30-5t30-3q15 0 30.5 1.5t30.5 5.5q7 2 13.5 4.5t12.5 5.5q7 3 13 6.5t12 7.5q1 1 3 2t5 3q0-7 0.5-13t1.5-13q0-6 0.5-12t0.5-12q-1-15-3-30t-6-29q-4-15-9.5-28.5t-13.5-27.5q-8-12-17.5-22.5t-20.5-18.5-24.5-13.5-28.5-6.5q-8-1.5-15.5-1.5h-4q-9.5 0.5-19.5 1.5-9 2-18.5 4.5t-18.5 4.5q-21 7-41 15.5t-39 18.5q-20 10-38.5 21.5t-36.5 23.5q-9 7-18 13.5t-18 13.5q-9 6-18 13l-18 14q-18 13-36.5 23.5t-38.5 19.5q-19 8-39.5 14t-42.5 8q-10 2-20.5 2.5t-20.5 1.5-20.5 1.5-20.5 0.5q-7 1-14 1h-13q-7 0-14-0.5t-14-0.5q-9 0-14 4.5t-5 13.5q0 13-0.5 25t-0.5 24z" />
<glyph unicode="&#x4e;" glyph-name="wiki" data-tags="wiki" d="M0 749v37l3 1h260v-36q-13-1-26-5t-23-12q-10-7-15-17.5t0-24.5q24-55 48-109.5t47-109.5 46.5-109.5 48.5-109.5l111 208q-16 33-30.5 66t-28.5 66l-30 66t-33 65q-5 10-15 15t-22 8q-12 2-25 3t-24 1v34l246-1 1-33q-8-1-17-3t-15-5q-7-4-11-10.5t-3-16.5l70-154q9 18 18 36.5t18 36.5q8 18 16.5 36.5t16.5 37.5q3 15-2.5 23.5t-15.5 12.5-22.5 5-23.5 2l-1 32 220 1v-33q-12-1-23.5-3.5t-21.5-6.5q-11-4-19.5-10.5t-15.5-14.5q-16-25-30.5-51.5t-27.5-53.5q-13-28-25.5-55.5t-25.5-54.5q13-29 25.5-58.5t25.5-57.5q13-29 25.5-57t25.5-55l187 432q-5 10-12.5 17.5t-16.5 12.5q-9 6-19.5 9t-20.5 6l-2 35 208-2v-34q-7-1-13.5-3t-13.5-5q-6-3-11.5-7t-11.5-9l-10-12t-9-13l-258-594h-43l-123 289-149-289h-44q-33 68-62 137.5t-57 139.5q-29 69-59 138t-64 136q-9 15-20 29t-24 26q-12 12-24.5 20.5t-22.5 12.5z" />
<glyph unicode="&#x4f;" glyph-name="apple" data-tags="apple" d="M75 415q0 61 18.5 118.5t53.5 102.5q34 44 82 71t107 27q17 0 33-1.5t30-5.5q14-3 26.5-8t24.5-11q11-7 21.5-11.5t21.5-7.5q10-3 20-4.5t20-1.5q8 0 17.5 1t18.5 2q9 2 18.5 5t19.5 7q22 9 41.5 15.5l34.5 11.5q16 5 28 7.5t21 2.5q23 0 43-4t38-11q19-7 35-17t31-24q6-6 12-13t12-15 12-17 12-19q-28-9-50-30.5t-37-49.5q-16-28-24.5-59t-8.5-59q0-35 9.5-70.5t28.5-65.5q18-30 44.5-52.5t59.5-31.5q-9-31-25.5-65.5t-37.5-65.5q-21-32-44.5-59t-46.5-44q-10-7-21-12t-22-8q-12-3-25-4.5t-27-1.5q-9 0-19 1t-21 3q-11 3-23 6.5t-26 9.5q-12 5-22.5 9t-20.5 7q-10 2-18.5 3.5t-15.5 1.5q-6 0-15-2t-21-6q-13-4-27.5-9t-32.5-12q-10-3-18.5-5.5t-16.5-4.5-14.5-2.5-12.5-0.5q-15 0-30 3t-30 9q-14 6-28 15t-29 21q-44 41-78 90t-58 104q-23 55-35.5 115t-12.5 122zM507 728q0 21 4 41t12 39q7 19 18.5 37t25.5 36q15 16 32 29t36 23q18 10 38 16.5t42 10.5q0-22-4-43.5t-11-42.5q-8-20-19-39.5t-26-36.5q-16-18-33-31t-35-22q-19-9-39-13t-41-4z" />
<glyph unicode="&#x50;" glyph-name="uni50" data-tags="uni50" d="M0 9q3 2 4.5 3.5t2.5 3.5q29 28 57 56l56 56q28 29 56 57t57 56q3 3 4.5 6.5t1.5 8.5v67t-1 67q0 34 0.5 67.5t0.5 67.5q0 10 0.5 20.5t1.5 20.5 2.5 20.5 3.5 20.5q3 19 10.5 36t18.5 30q11 14 26 24t34 16l16 4t8 1.5 8 1.5q18 0 35.5 0.5t35.5 0.5q18 1 35.5 1.5t35.5 0.5l2-1v-159q0-2-0.5-4t0.5-4q2-3 4.5-7t5.5-6q4-3 8-1.5t7 4.5q2 1 3.5 3t3.5 3q50 50 100 100.5t100 100.5l200 200q2 2 3.5 5t3.5 3h-585q-12 0-25-1t-25-2q-13-1-25.5-3t-24.5-4q-44-9-80.5-26t-66.5-42q-29-25-51.5-58.5t-37.5-75.5q-9-23-14.5-46.5t-8.5-47.5q-4-24-5.5-48.5t-1.5-48.5v-548zM74-62q13 13 27 26.5t27 27.5q14 13 27.5 26.5l27.5 27.5q37 37 74 74.5t74 74.5q38 37 75 74.5t74 74.5l4 4q4 4 8.5 6t9.5-1q6-2 8-7t2-10v-163q0-1 2-1h35.5t32.5 1q16 0 32.5 0.5t32.5 0.5l24 4t12 3 11 4q18 6 32 16t24 23 16.5 28.5 10.5 33.5q2 9 3.5 19t2.5 20 1.5 20 0.5 20v274q0 5 1.5 8.5t4.5 6.5l224 224q2 2 3 4l2 4q1 0 2.5-0.5t1.5-1.5v-548q-1-25-2.5-50t-4.5-50q-4-24-10-48t-15-48q-16-40-38-72.5t-51-56.5-65-40.5-77-24.5q-13-3-26-5t-26-3-26-1.5-26-0.5l-583 0.5v1.5z" />
<glyph unicode="&#x51;" glyph-name="github" data-tags="github" d="M60.5 304.5q-8.5-1.5-8.5-6.5 0-9 29-29l25.5-20q25.5-20 48.5-78l42.5-54q27.5-34.5 94.5-34.5 37.5 0 87 10.5v-93q0-23 0.5-40.5t0.5-23.5h329q0 8 0.5 30.5t0.5 52.5v133q0 23-3.5 42t-9.5 35q-7 15-15 26.5t-17 19.5q56 6 110 22t98 52q43 36 69.5 97t26.5 157q0 27-5 52t-13 47q-9 22-22 42t-29 38q3 6 7.5 21.5t5.5 37.5q0.5 7.5 0.5 16 0 17-2.5 36.5-4 29.5-17 64.5l-44-2t-139-67q-20 6-40.5 10t-41.5 7-42 4.5-42 1.5q-22 0-43-1.5t-42-4.5-41.5-7-40.5-10q-95 65-139 67l-44 2q-13-35-17-64.5-2.5-19.5-2.5-36.5 0-8.5 0.5-16 1-22 5.5-37.5t7.5-21.5q-16-18-29-38t-22-42q-8-22-13-47t-5-52q0-96 26.5-156.5t69.5-97.5q43-36 97.5-52t109.5-23q-7-6-13.5-14.5t-12.5-19.5q-5-11-9.5-25t-6.5-30q-14-6-38-12.5-18.5-5-38.5-5-6 0-12.5 0.5-27 3-54.5 18.5t-50.5 54.5l-26 32.5q-26 32.5-76 35.5zM114 286q1 3 4.5 3.5h1.5q2.5 0 5-1.5 4-1 6-4t0-6q-1-2-4.5-2.5t-6.5 0.5q-4 2-5.5 5-1 2-1 3t0.5 2zM140.5 260q0 3.5 2.5 5 1.5 1.5 4.5 1.5h1.5q4-0.5 7-4.5 4-3 4.5-7t-2.5-7q-2-2-6-1t-7 4q-4.5 4.5-4.5 9zM167 224.5q0 4.5 3 7.5 1.5 1 3.25 1t3.75-1q4-2 8-6 3-4 3-9t-4-7q-3-2-7-0.5t-7 6.5q-3 4-3 8.5zM198 185v2.5q0 3.5 2 5.5 1.5 2 4.5 2h2.5q5-1 10-5 4-4 5-9t-2-8q-2-3-7-2.5t-10 5.5q-4 4-5 9zM242 160q2 4 6.5 5.5 2 0.5 4 0.5 3 0 6.5-1 6-2 9-6t2-7q-1-4-6-6t-11 0q-5 2-8.5 6t-2.5 8zM296 147q0 4 4 7t10 3 10-2.5 4-6.5q1-5-3.5-8t-10.5-3-10 3-4 7zM347 153q0 3 2.5 5.5 3.5 3.5 9.5 4.5 2 0.5 4 0.5 3.5 0 6.5-1.5 4.5-2 5.5-6v-2q0-3-2.5-5.5-3.5-3.5-9.5-4.5-2-0.5-4-0.5-3.5 0-6.5 1.5-5.5 2.5-5.5 8z" />
<glyph unicode="&#x52;" glyph-name="uni52" data-tags="uni52" d="M183 448q0 105 40.5 198.5t109.5 162.5q70 70 163 110.5t199 40.5q9 0 19-0.5t19-1.5q10 0 18.5-1.5t16.5-2.5v-70q-8 1-16.5 2t-18.5 2q-9 1-19 1.5t-19 0.5q-91 0-172-35t-141-95-95-140.5-35-171.5q0-92 35-172.5t95-140.5 141-95 172-35q9 0 19 0.5t19 1.5q10 1 18.5 2t16.5 3v-71q-8-1-16.5-2t-18.5-2q-9-1-18.5-1h-19.5q-106 0-199 40t-163 110q-69 69-109.5 162.5t-40.5 199.5zM334 448q0-75 28.5-141t77.5-115 114.5-77.5 140.5-28.5q9 0 19 0.5t19 1.5q10 1 18.5 2.5t16.5 3.5v104q-8-3-16.5-5t-18.5-3q-9-1-18.5-2t-19.5-1q-54 0-101 20.5t-83 55.5q-35 36-55.5 83.5t-20.5 101.5q0 53 20.5 100.5t55.5 83.5q36 35 83 55.5t101 20.5q10 0 19.5-0.5t18.5-2.5q10-1 18.5-3t16.5-5v104q-8 2-16.5 3.5t-18.5 2.5q-9 1-18.5 1.5t-19.5 0.5q-75 0-140.5-28.5t-114.5-77.5-77.5-115-28.5-140zM552 449q0-38 13.5-68.5t37.5-52.5 56-33.5 69-11.5q14 0 29 2t30 7 28.5 13 25.5 20l-65 68q-4-5-9-9.5t-11-7.5-13-5-15-2q-18 0-32.5 5.5t-25.5 16.5q-10 10-15 25t-5 33 5 32.5 15 25.5q11 10 25.5 16t32.5 6q8 0 15-2t13-5 11.5-7.5 8.5-9.5l65 68q-12 11-25.5 19.5t-28.5 13.5-30 7-29 2q-37 0-69-11.5t-56-33.5-37.5-52.5-13.5-68.5z" />
<glyph unicode="&#x53;" glyph-name="uni53" data-tags="uni53" d="M0 403v180h180v90q0 55 19 104.5t52 85.5q33 37 77 58t94 21h152v-177h-152q-11 0-22-7t-20-20q-9-12-14.5-29t-5.5-36v-90h270v90q0 55 19 104.5t52 85.5q32 37 76.5 58t94.5 21h152v-177h-152q-11 0-22.5-7t-20.5-20q-8-12-14-29t-6-36v-90h180v-180h-180v-450h-179v450h-270v-450h-180v450h-180z" />
<glyph unicode="&#x54;" glyph-name="newsvine" data-tags="newsvine" d="M243 305q0 15 5.5 28t15.5 23 23 15.5 28 5.5 28.5-5.5 23.5-15.5 15.5-23 5.5-28q0-3-0.5-6t-0.5-6l90-65v215l-126 91q-4-3-8-4.5t-9-2.5q-4-1-9-2t-10-1q-15 0-28 6t-23 15q-10 10-15.5 23.5t-5.5 28.5 5.5 28 15.5 23 23 15.5 28 5.5 28.5-5.5 23.5-15.5 15.5-23 5.5-28q0-3-0.5-6t-0.5-6l90-66v202l-127 92-8-4t-8-3q-5-1-9.5-1.5t-9.5-0.5q-15 0-28 5.5t-23 15.5-15.5 23-5.5 28 5.5 28.5 15.5 23.5 23 15.5 28 5.5 28.5-5.5 23.5-15.5 15.5-23.5 5.5-28.5q0-3-0.5-6.5t-0.5-6.5l90-65v162h70v-307l90 65q-1 3-1 5.5v4.5q0 15 5.5 28.5t15.5 22.5q10 10 23.5 16t28.5 6 28-6 23-16q10-9 15.5-22.5t5.5-28.5-5.5-28-15.5-23-23-15.5-28-5.5q-6 0-11 0.5t-9 1.5q-5 2-9.5 4t-8.5 4l-124-89v-202l90 65q-1 2-1 4v5q0 15 5.5 28t15.5 23 23.5 15.5 28.5 5.5 28-5.5 23-15.5 15.5-23 5.5-28-5.5-28.5-15.5-23.5-23-15.5-28-5.5q-6 0-11 0.5t-10 2.5q-5 1-9.5 3.5t-8.5 4.5l-123-89v-215l90 65q-1 2-1 4v4q0 15 5.5 28.5t15.5 23.5 23.5 15.5 28.5 5.5 28-5.5 23-15.5 15.5-23.5 5.5-28.5-5.5-28-15.5-23-23-15.5-28-5.5q-6 0-11 0.5t-10 2.5q-5 1-9.5 3.5t-8.5 4.5l-123-88v-71h-70v215l-126 91-8-4t-9-3q-4-2-9-2.5t-10-0.5q-15 0-28 6t-23 15q-10 10-15.5 23.5t-5.5 28.5z" />
<glyph unicode="&#x55;" glyph-name="uni55" data-tags="uni55" d="M0 475q0-94 36.5-177t99.5-145q64-61 149-97t182-36q27 0 54 3t53 9 50.5 15 47.5 20l352-103-115 366q6 17 10.5 35t8.5 36q3 18 4.5 37t1.5 38q0 94-36.5 177t-99.5 145q-64 62-149 97.5t-181 35.5q-97 0-182-36t-149-98q-63-61-100-144t-37-178zM150 475q0 64 25 120.5t68 98.5 101 66.5 123 24.5q66 0 123.5-24.5t100.5-66.5 68-98 25-120q0-15-1.5-29t-4.5-28q-2-13-6-26.5t-9-25.5l59-166 5-15 1 1 20-54-75 18-160 51q-16-9-33.5-15.5t-36.5-10.5q-18-5-37-7t-39-2q-66 0-123.5 24t-100.5 66-68 98-25 120z" />
<glyph unicode="&#x56;" glyph-name="uni56" data-tags="uni56" d="M51 345v512q0 21 8 40t22 33q14 13 32.5 21.5t40.5 8.5q21 0 39.5-8.5t32.5-21.5q14-14 22-33t8-40v-512q0-42 16-79.5t44-65.5q28-27 65-43.5t80-16.5h102q43 0 80 14.5t65 38.5 44 57 16 70-9.5 70-23.5 57q-15 24-33.5 38t-35.5 14h-205q-21 0-40 8t-33 22-22 32.5-8 39.5 8 40 22 33q14 13 33 21.5t40 8.5h205q63 0 119-30.5t98-82.5q41-52 65.5-122t24.5-149q0-80-32.5-150t-87.5-122q-56-52-130.5-82t-159.5-30h-102q-85 0-159.5 32t-130.5 88q-55 55-87.5 129.5t-32.5 159.5z" />
<glyph unicode="&#x57;" glyph-name="uni57" data-tags="uni57" d="M68 140q0 9 9.5 22t34.5 30q12 28 25.5 53.5t14.5 31.5 13.5 68 34.5 131q21 70 46.5 105t31.5 40q5 3 7 5.5t-3 5.5-38 47.5q-26 35-26 100 0 17.5 2 37.5 2 11 6 6.5t7-28.5q2-13 8-32t16-39q11-20 27-37.5t38-26.5h1.5q8.5 0 52 16 48.5 18 209.5 30 1 28 4.5 53l3.5 25-8 8.5q-8 8.5-10 25.5-5-8-9-11t-11-2q-7 2-7.5 28v17q0 17 0.5 33 1 12 7.5 20.5t14.5 14.5q8 5 16.5 8t13.5 4q14 7 26 7h12l28 15q16 8.5 46 8.5 22 0 51-4.5l42.5-1.5t83.5-28.5q8 0 14.5-1.5t12.5-4.5 11-8.5 9-12.5 8.5-18.5 8.5-24.5q3-13 3-26t-6-24q-4-4-9.5 7l-5.5 11-5.5-15.5q-5.5-15.5-16.5-23.5v-9q0-16-2.5-30-3.5-18-8.5-33-4-14-9-23.5t-8-14.5q-2-6-1-11.5t3-10.5q2-6 21.5-80 17.5-67 17.5-101.5v-6.5q0-17-4.5-34.5t-10.5-33.5-13.5-29-14.5-19q2-14 0-27t-6-24-8-19.5-8-14.5q-3-5-7.5-17.5t-9.5-27.5-9-29.5-6-24.5q-4-20-4.5-39t3.5-25q4-7 17.5-23t12.5-26q-1-5-6-10t-12-9q-6-4-13-6.5t-12-2.5-12.5 1.5-14.5 4.5-12.5 8-8.5 12q-2 7-3.5 16t-2.5 18q0 10 0.5 18.5t2.5 15.5 7.5 32.5 10.5 59.5 6.5 71v11.5q0 30-6.5 55.5-35-16-79.5-18.5l-44.5-2.5-9-39.5q-9-39.5-21-69.5-2-4-3-17t-2-29v-70q0-31 7.5-68l7.5-37 9.5-9.5q9.5-9.5 7.5-23.5-1-7-5.5-12t-11.5-9q-6-4-14-5.5t-15-1.5q-8 0-16 2.5t-15 7.5q-7 6-11.5 13t-4.5 17q0 9 0.5 23.5t1.5 31.5q0 17 0.5 34.5v11.5q0 11-0.5 21-1 15-1 28t-1 25q0 11-1.5 21t-3.5 20q-3 9-7.5 26t-8.5 37-7.5 41.5-4.5 41.5q-5 0-9 2.5l-4 2.5-18.5-21q-18.5-21-35.5-37 2-10 6.5-25.5t4.5-19.5q0-5 4-8.5t11-6.5 23-13.5 15-22.5q0-6-6.5-9.5t-16.5-4.5-22.5 1.5-24.5 7.5q-6 3-21.5 51.5t-17.5 57.5q-3 9-4.5 15.5t2.5 14.5q1 4 4 11.5t6 17.5q3 9 5 18.5t1 17.5q-1 7-7.5 16t-16.5 17q-9 8-20 13t-20 5q-7 0-16-4.5t-18-11.5-18.5-15-17.5-15q-19-15-38-33t-24-22q-6-4-38.5-63t-41.5-82q-1-5-4.5-17t-10.5-25-18.5-22.5q-10.5-8.5-27-8.5h-3.5q-9 1-16 6t-7 14z" />
<glyph unicode="&#x58;" glyph-name="uni58" data-tags="uni58" d="M0 162l58-23q7-35 26-65.5t46-52.5 61-34.5 72-12.5q40 0 76.5 14.5t64.5 40.5q28 25 45.5 59.5t21.5 74.5l269 197q59 0 110 22t89 60 60 89 22 109q0 59-22 110t-60 89-89.5 60-109.5 22-108.5-21.5-88.5-59.5q-39-38-61-88.5t-23-108.5l-175-251q-5 1-10.5 1h-10.5q-15 0-29-2t-28-5q-13-4-26-9.5t-25-12.5l-155 63v-265zM126 111q9-3 19-7t19-8q10-4 19.5-7.5t18.5-7.5q23-9.5 45.5-9.5h2.5q24 0.5 46 10.5 22 9 39 26t27 41q8.5 22 8.5 45v2.5q-0.5 24.5-9.5 46.5-10 21-27 38.5t-40 26.5l-65 26q4 1 8 1.5t9 1.5q4 0 8 0.5t9 0.5q32 0 60-12t49-33 33-49 12-61q0-32-12-60t-33-49-49-33-60-12q-23 0-43.5 6t-37.5 17q-18 11-32 26t-24 33zM552 640q0 39 15 73.5t40 60.5q26 25 60 40t73 15 73.5-15 60.5-40q25-26 40-60.5t15-73.5-15-73-40-60q-26-25-60.5-40t-73.5-15-73 15-60 40q-25 26-40 60t-15 73zM591 641q0 31 11.5 58.5t32.5 48.5q20 20 47.5 32t58.5 12 58.5-12 47.5-32q21-21 33-48.5t12-58.5-12-58.5-33-47.5q-20-21-47.5-32.5t-58.5-11.5-58.5 11.5-47.5 32.5q-21 20-32.5 47.5t-11.5 58.5z" />
<glyph unicode="&#x59;" glyph-name="uni59" data-tags="uni59" d="M-4 452q0-45 7.5-88t22.5-84q14-40 35-77t47-70l7 137.5q7 137.5 259 398.5-113 69-176.5 100.5l-63.5 31.5q-32-34-57.5-74t-43.5-84-27.5-92-9.5-99zM138 100q35-37 76.5-66t88.5-50q47-20 98.5-31.5t106.5-11.5 106.5 11.5 98.5 31.5q47 21 88.5 50.5t76.5 65.5l-66.5 141q-66.5 141-305.5 317-213-158-290.5-308zM176 841l89 19.5q13 3 28 3 84 0 215-95.5v0q132 94 216 94 14 0 27-2.5l89-18.5q-33 29-71.5 51.5t-80.5 38.5-87.5 24.5-92.5 8.5q-48 0-93-8.5t-87-24.5-80.5-38.5-71.5-51.5zM643 669q252-261 258.5-398.5l6.5-137.5q27 33 47.5 70t35.5 77q14 41 21.5 84t7.5 88q0 51-9.5 99t-27.5 92q-17 44-42.5 84t-57.5 74l-63.5-31.5q-63.5-31.5-176.5-100.5z" />
<glyph unicode="&#x5a;" glyph-name="windows" data-tags="windows" d="M-3 417l2-340 421-55v395h-423zM-3 468h423v411l-421-61zM461 16l563-77v478h-563v-401zM461 468h563v494l-563-76v-418z" />
<glyph unicode="&#x5e;" glyph-name="uni5E" data-tags="uni5E" d="M0 214q1-17 19-28t45-19q27-7 59-12t62-10q27-4 53.5-5.5t51.5 1.5q26 2 50 7t47 13v47-96l165-53v3l1-3 144 50 240 84-156 49-229-79v55l147 50 86 29q33 6 56 4.5t30-8.5q7-6-3.5-16t-43.5-20l-43-15 156-49 3 1q23 8 40 18t28 21q10 10 14 21t1 22q-4 18-20 32t-43 25q-26 10-62.5 16.5t-81.5 9.5q-32 3-63.5 0.5t-62.5-7.5q-32-6-63-14.5t-62-19.5l-13-4v361q0 12 10 17.5t22 4.5 22-7.5 10-19.5v-283q49-14 85.5-10.5t61.5 24.5q25 20 37.5 58t13.5 92q0 46-14.5 82.5t-42.5 64.5q-28 29-68.5 49t-91.5 34l-210 56v-430l-65-22 65-20v-108l-154-51q-19-7-35-4t-25 11q-8 7-6 17t19 16l38 13-142 45q-16-5-31.5-14t-26.5-20q-12-11-18.5-25.5t-5.5-30.5zM82 304l142-45 163 59v47l-65 20-238-80.5t-2-0.5z" />
<glyph unicode="&#x61;" glyph-name="twitter" data-tags="twitter" d="M0 126q6-1 12.5-1.5t12.5-0.5q6-1 12.5-1h12.5q37 0 72.5 6t68.5 18q32 11 62.5 28t57.5 38q-34 0-65.5 11.5t-57.5 30.5q-25 20-44 46t-29 58q5-1 9.5-2t9.5-1q5-1 10-1h10q7 0 14.5 0.5t14.5 1.5q6 1 13 2.5t14 2.5q-36 8-67 26.5t-54 45.5q-22 28-35 62t-13 72v3q11-6 22-10.5t23-8.5q12-3 24.5-5t25.5-2q-21 14-38 33t-30 41q-12 22-18.5 47.5t-6.5 53.5q0 14 2 28t5 27q4 13 9.5 26t11.5 24q39-47 87-86t103-68q55-28 116.5-45t126.5-20q-1 5-2 11l-2 12q0 6-0.5 12t-0.5 13q0 43 16.5 81.5t44.5 66.5q29 29 67 45.5t82 16.5q23 0 44-5t41-13q19-9 36.5-21t31.5-28q18 4 35.5 9t34.5 11q16 7 32 14.5t32 16.5q-6-18-15-35t-21-31q-12-15-26-27.5t-31-22.5q16 2 31.5 5t30.5 7q16 4 30.5 9.5t28.5 11.5q-11-16-22.5-30.5t-25.5-28.5q-13-14-27-26t-30-24q0-6 0.5-13t0.5-14q0-104-39-210.5t-115-192.5-187.5-140.5-256.5-54.5q-44 0-87 6.5t-84 18.5q-40 12-78 30t-73 40z" />
<glyph unicode="&#x62;" glyph-name="facebook" data-tags="facebook" d="M263 416v173h127v148q0 43 14.5 83.5t44.5 71.5q31 31 77.5 49.5t111.5 18.5q53 0 87.5-3.5l34.5-3.5-4-162-33.5 0.5q-33.5 0.5-77.5 0.5-23 0-37-5.5t-22-15.5q-8-9-10.5-23.5t-2.5-32.5v-126h188l-8-173h-180v-480h-183v480h-127z" />
<glyph unicode="&#x63;" glyph-name="google-plus" data-tags="google-plus" d="M0 170q0-16 4-31.5t11-29.5q8-15 19.5-28t26.5-25q15-13 34-22.5t42-15.5q23-7 49.5-10.5t57.5-3.5q36 1 68.5 5.5t60.5 13.5q28 8 51.5 21t42.5 30q19 16 33 33.5t23 36.5q10 19 14.5 39t4.5 41q0 15-2 28.5t-5 25.5q-4 12-9 22.5t-11 19.5q-7 10-14.5 18.5t-15.5 16.5q-8 9-17 16.5t-18 15.5l-39 32q-5 5-9 9.5t-9 10.5-8 13.5-3 16.5q0 5 1 9.5t2 8.5 3 8 5 7q4 7 9 13l10 12q5 4 9 8t9 7l16 16t7.5 8 7.5 8q3 4 6.5 8.5t6.5 8.5q7 10 12 21t8 23q4 13 5.5 27t2.5 29q0 9-0.5 17t-1.5 15q-1 8-2.5 15t-3.5 13-4.5 12-5.5 12q-3 5-5.5 10.5t-5.5 9.5q-4 5-7 9.5t-6 8.5-6.5 8-6.5 7q-7 6-13 12.5t-12 6.5h72l72 41h-233q-12 0-24-0.5t-24-1.5q-13-1-25.5-3t-25.5-4q-14-4-27-8.5t-26-11.5q-13-6-25.5-14.5t-25.5-18.5q-18-18-31.5-36t-22.5-38q-9-19-13.5-39.5t-4.5-41.5q0-18 3-34.5t10-32.5q6-15 15.5-29.5t22.5-28.5q12-14 27-25t33-18 38.5-11 43.5-4h8.5t9.5 1q5 0 9.5 0.5t9.5 0.5q-1-4-3-9t-4-11q-2-5-3-11.5t-1-13.5 0.5-13 2.5-11q1-6 3-11t5-9q3-5 5.5-9.5t5.5-9.5q3-4 6-8.5t6-8.5q-10 0-21.5-1t-24.5-2-27-3-30-4q-15-3-30.5-7t-30.5-9q-14-5-28.5-12t-29.5-15q-12-8-22.5-16t-19.5-17q-9-8-15.5-17.5t-11.5-19.5-9-19.5-6-18.5q-3-9-4-17.5t-1-16.5zM99 195q0 8 0.5 15t2.5 14 4 13 6 11q2 6 5.5 10.5t6.5 9.5q3 4 7 8t8 7q4 4 8 7l8 6q5 2 9 4.5t8 4.5q8 3 14 5.5t11 4.5q9 3 18.5 5t18.5 5q9 2 18.5 3.5t18.5 2.5q18 2 29.5 2.5t15.5-0.5h14.5t11.5-1q17-11 31-21.5t26-20.5q12-9 21.5-18t17.5-16q7-9 12.5-17.5t9.5-18.5q3-10 5-20.5t2-21.5q0-13-2.5-25.5t-8.5-23.5q-5-11-13-21t-18-19q-11-9-24.5-15.5t-28.5-11.5q-16-4-34-6.5t-39-2.5q-23 0-43.5 2.5t-38.5 8.5q-18 5-33.5 12.5t-29.5 17.5q-13 10-23.5 21t-17.5 24-10.5 26.5-3.5 29.5zM157 728q0 11 1 22.5t5 22.5q3 11 8 21t11 20q8 9 17 16t19 12q9 5 20 7.5t23 2.5q9 0 17.5-1.5t16.5-4.5q7-2 14.5-6t14.5-9 13-11 12-13q5-7 10-14.5t9-16.5q8-17 15-34.5t11-34.5q4-18 6.5-35t2.5-34q0-8-0.5-18t-2.5-22q-1-6-2.5-11.5t-4.5-11.5q-2-5-5-11t-7-11q-7-8-16-14t-18-10q-10-4-20.5-6.5t-21.5-2.5q-9 0-18 1.5t-17 3.5q-8 3-15.5 7t-14.5 10q-7 5-13.5 11.5t-12.5 13.5q-5 6-10.5 13.5t-9.5 15.5q-9 17-16 34t-12 33-7 32.5-2 32.5zM573 622v71h195v195h61v-195h195v-71h-195v-195h-61v195h-195z" />
<glyph unicode="&#x64;" glyph-name="pinterest" data-tags="pinterest" d="M102 580q0 13 1.5 26t3.5 26q2 14 5 27t8 27q4 13 9.5 26t12.5 26q6 13 14 25.5t17 24.5 19 24 20 22q11 11 22.5 21.5t24.5 20.5q12 9 26 17.5t29 16.5q16 8 32.5 14.5t34.5 12.5q18 5 37 9.5t38 7.5q20 3 40 4.5t41 1.5 41.5-2 40.5-6q19-3 38-8.5t37-13.5q19-7 35.5-15.5t31.5-18.5q16-9 29.5-20t25.5-23q13-12 24-25t20-27q10-14 18.5-29t15.5-30q7-16 12-32t9-32q3-17 5-33.5t2-32.5q0-46-6-87t-17-79q-12-37-29-70.5t-40-62.5q-23-30-49-52t-56-37q-29-14-62-21.5t-69-7.5q-12 0-24 1.5t-23 3.5q-11 3-22 7.5t-21 9.5q-11 6-20 12t-16 13q-7 6-13 13.5t-10 15.5q-9-35-16-63t-12-49q-6-21-9.5-35t-5.5-20q-4-18-12-37.5t-18-40.5q-11-21-25-43.5t-31-46.5h-42q-3 30-4.5 58.5-1 17-1 33 0 10.5 0.5 20.5 1 25 3.5 48t7.5 43l78 331q-4 10-8 21t-6 23-3.5 25-1.5 28q0 16 2 31.5t7 29.5q4 14 10.5 26.5t14.5 23.5q9 12 18.5 20.5t19.5 13.5q10 6 21.5 9t23.5 3q10 0 18.5-2t16.5-5q7-3 13.5-8t11.5-11q6-7 10-14.5t6-15.5q3-8 4.5-17t1.5-19q0-6-1-12.5t-2-14.5q-1-7-2.5-15.5t-3.5-16.5q-2-9-5-18.5t-6-19.5q-2-10-5.5-21t-7.5-23-7-22l-6-20q-2-9-4-17t-4-15q-3-12-3-23t2-22q2-10 7-19.5t12-18.5q8-8 16.5-14.5t18.5-11.5q9-4 20-6t23-2q21 0 40.5 5.5t36.5 17.5 32.5 29.5 29.5 41.5q13 24 23.5 50t16.5 54q7 29 10.5 60t3.5 65q0 26-4.5 49t-12.5 44-20.5 40-29.5 35-37 28-43 20-49.5 12.5-56.5 4.5q-33 0-63.5-5.5t-57.5-16.5q-27-10-51-26t-44-38q-21-21-36.5-44.5t-26.5-49.5q-10-25-15-53t-5-58q0-17 2.5-33.5t7.5-31.5 12.5-28.5 17.5-26.5q3-4 5.5-8t3.5-8 1-8.5-1-8.5q-2-7-5-19.5t-7-29.5q-2-6-5-9.5t-7-5.5-9-2-10 2q-15 6-28.5 14.5t-25.5 19.5-21.5 24.5-17.5 29.5q-8 15-14 32t-10 35-6 37-2 40z" />
<glyph unicode="&#x65;" glyph-name="uni65" data-tags="uni65" d="M145-1q0-15 3.5-25.5t9.5-17.5q5-7 10.5-11t10.5-6q4-1 12.5-2.5 5-1 10.5-1 3.5 0 7 0.5 9 1 18.5 5t17.5 12l129.5 150.5q129.5 150.5 132.5 153.5 5 5 6.5 6t6.5 1h167q26 0 42.5 8t25.5 20q9 13 13.5 26.5t7.5 24.5q2 9 14.5 70.5t27.5 140.5q16 78 31.5 155.5t23.5 119.5q6 28 6 50.5v6q-1 24.5-11 40.5-10 17-29.5 25.5t-49.5 8.5h-546q-29 0-47.5-9.5t-29.5-23.5q-12-14-16.5-30t-4.5-30v-868zM258 136v678q0 5 2.5 11t6.5 11q5 5 11 8t13 3h438q7 0 12.5-3t9.5-7q4-5 5.5-11.5t0.5-13.5l-23-120q-1-5-4.5-9.5t-8.5-8.5q-4-4-10-6t-11-2h-213q-9 0-16.5-3t-13.5-8q-5-6-8-13t-3-16v-27q0-8 3-16t8-13q6-5 13.5-8t16.5-3h180q7 0 13-3.5t10-8.5 6.5-11.5 0.5-13.5q-2-14-11.5-62t-11.5-55q-1-8-9.5-17.5t-23.5-9.5h-147q-10 0-17-1t-13-4-11.5-8-11.5-13q-14-17-97-116.5l-83-99.5q-1-1.5-1.5-1.5h-0.5q-1 0.5-1 1.5zM776 343q2 9 14.5 70.5t27.5 140.5q16 78 31.5 155.5t23.5 119.5z" />
<glyph unicode="&#x66;" glyph-name="yahoo" data-tags="yahoo" d="M0 769q5 2 26.5 2.5h15.5q16.5 0 38-0.5 33 0 72.5-0.5h26.5q26.5 0 53 0.5 27 1 67.5 1.5h27q26.5 0 52.5-0.5 39 0 69.5-1t37.5-2l-5-36q-8-2-29-3.5t-44-3.5q-24-1-46-3t-32-5q26-38 58-80.5t62-82.5q31-39 56.5-72t38.5-52q7 10 38 35t66 54q34 29 62.5 56t30.5 42q-10 2-29.5 5.5t-39.5 6.5q-21 2-38 4.5t-22 2.5l-9 46q9 2 35 2h58q32-1 65-1.5t57-0.5h111t56-0.5 38-2.5l-30-43q-7-1-22.5-4t-33.5-7-35-7.5-26-5.5q-10-3-54-34.5t-94-71.5q-49-41-91-80t-48-56q-1-6-2-13.5t-2-15.5q-1-9-1-17.5v-17.5l-2-37q0-10 1-22.5t3-25.5 4-24.5 3-20.5q6-1 27.5-1.5t47.5-0.5q25 0 47.5-0.5t30.5-1.5l-2-48q-8 1-36.5 1h-216.5q-16 0-46.5-0.5t-64.5-1.5-64.5-1.5h-18.5q-17.5 0-28 0.5l8 45q9 1 29 1t42 1 41.5 4.5 27.5 11.5q4 5 5.5 10t1.5 14q1 9 0.5 24t-0.5 39v60q-1 8-1.5 17.5t-1.5 19.5q-4 10-40 58t-83 104q-46 57-91 108t-65 67q-6 2-25.5 5t-42.5 6q-22 2-43 5t-31 5z" />
<glyph unicode="&#x67;" glyph-name="skype" data-tags="skype" d="M7 680q0-19 2.5-37.5t7.5-36.5 12-34.5 17-32.5q-3-12-4.5-24t-3.5-24q-1-12-1.5-24t-0.5-25q0-100 37.5-187.5t103.5-152.5q65-66 153-103.5t187-37.5q12 0 23 0.5t22 1.5 22 2.5 22 3.5q14-8 30-14.5t32-10.5q17-4 34.5-6t35.5-2q57 0 108 21.5t89 59.5 60 89 22 109q0 17-2 33t-6 32q-3 15-8.5 30t-12.5 29q3 12 5 25t3 26l2 26t1 26q0 100-38 187.5t-103 153.5q-65 65-153 103t-188 38q-10 0-20.5-0.5t-20.5-1.5q-11-1-21-2.5t-20-2.5q-16 10-33.5 18t-36.5 13q-19 6-38.5 9t-40.5 3q-57 0-108-22t-89-60-60-89-22-109zM230 306q0 7 1 13t4 12q2 6 6 11t9 10q5 4 10.5 7.5t11.5 6.5q7 2 14 3t14 1q6 0 12-0.5t11-2.5 10-5 9-6q5-4 8.5-8.5t7.5-9.5q3-5 6.5-11t6.5-13 6.5-13.5 6.5-13.5q4-6 7.5-11.5t6.5-10.5l8.5-8.5t9.5-8.5 10.5-7.5 12.5-6.5q6-3 14-5.5t16-3.5q9-2 19-2.5t21-0.5q15 0 28.5 1.5t25.5 4.5 23 8 20 11 15.5 13 11.5 14q4 8 6 16t2 17q0 7-1 13.5t-3 12.5q-3 5-6.5 10t-7.5 10q-5 4-11 8l-12 8t-13.5 7-15.5 5q-8 3-17.5 5.5t-20.5 5.5q-11 2-23.5 5t-26.5 6q-19 4-36 8.5t-33 8.5q-16 5-30.5 10t-26.5 11q-13 5-24.5 11.5t-22.5 14.5q-10 8-19 16.5t-17 17.5q-8 10-13.5 21t-9.5 23-6 25-2 28q0 13 2 26t6 26q4 12 10 23.5t15 21.5q8 11 18 20t21 18q12 8 25.5 15t28.5 12q15 6 31.5 10t34.5 7q17 3 36 4t39 1q17 0 32-0.5t29-2.5 27-5 25-6q12-4 23-8.5t21-9.5 18.5-10.5 16.5-11.5 15-12.5 13-13.5q6-6 10.5-13t8.5-14 7-14 4-13q2-7 3-14t1-14q0-6-1-12t-4-12q-2-6-6-11.5t-9-10.5-10.5-9-11.5-7q-6-2-13-3.5t-14-1.5-13 1-11 3q-5 1-9.5 3.5t-8.5 5.5q-3 3-6.5 7t-6.5 9q-4 4-7.5 10t-7.5 12q-5 9-10 16.5t-10 14.5q-6 7-11.5 12.5t-11.5 10.5q-7 5-15 8t-18 6q-10 2-22 3t-26 1q-13 0-24.5-1t-22.5-4q-10-2-19-6t-17-9-13.5-10.5-9.5-10.5q-3-6-5-12.5t-2-12.5q0-9 2.5-15.5t6.5-12.5l6-6t7-6q3-3 7.5-5.5t8.5-4.5q5-3 10-5t9-4q5-2 10-3.5t10-2.5q5-2 11.5-3.5t15.5-3.5l18-4.5t22-4.5q14-4 28-7t28-7q13-3 25.5-7t24.5-7q12-4 23-8.5t22-8.5q10-5 19.5-10t17.5-11q9-6 17-12t14-14q7-7 13-15t11-16q5-9 8.5-18.5t5.5-20.5q3-11 4-22.5t1-23.5q0-15-2-29t-6-28q-4-13-10.5-26t-14.5-25q-9-11-19-22t-23-20q-12-9-26-17t-30-15q-16-6-33.5-11t-36.5-9q-19-3-39-4.5t-42-1.5q-26 0-49.5 2t-45.5 7q-22 4-41 11t-36 16q-12 6-23 14t-21 17q-10 8-19 18t-16 21q-8 11-14 22t-10 22q-3 11-5 22t-2 21z" />
<glyph unicode="&#x68;" glyph-name="uni68" data-tags="uni68" d="M98 294.5v16.5l14 174q0 4 2 8.5t6 8.5q3 4 7 7.5t8 6.5q12 7 30 1.5l18-5.5 217-109 16-11.5q16-11.5 16-31.5 0-13-3-20.5t-8-11.5q-4-4-8.5-6t-8.5-5l-253-56-19.5-4q-4.5-1-8-1-13.5 0-20.5 11-5 11-5 27.5zM210 858q8 12 19 17.5l11 5.5 202 75q6 1 15.5 3.5 1.5 0.5 3 0.5 9.5 0 28.5-12 15-8 19.5-31l4.5-23 2-346-6-21.5t-27-26.5q-6.5-1.5-12.5-1.5-12 0-21 6.5l-13.5 10-210 285-13 20q-7 11-7 21 0 9 5 17zM262 21q-1 4-1 8 0 10.5 7 22.5l10 16.5 169 186 16 10q9 5.5 18 5.5l14-3.5q15-8 18-21.5l3-13.5-4-252-1-18.5q-1-18.5-17-22.5-8.5-3-17.5-3-3.5 0-7 0.5l-12.5 1.5-170 54q-4 2-8 5t-7 6q-3 4-5.5 8.5t-4.5 10.5zM592.5 443.5l4.5 13.5 137 216 10 13.5q8.5 12 23.5 12 2 0 4.5-0.5 15-1 23-10l8-9 116-136 4.5-13.5q4.5-13.5 0.5-26.5-3-13-20.5-22l-17.5-9-243-71-18.5-0.5h-1q-17.5 0-26.5 15.5-6 9.5-6 18.5 0 4.5 1.5 9zM601 275q-1.5 5-1.5 9.5 0 12 9.5 21.5 11 11 24 11h2l14-1 243-78 17.5-6.5q17.5-6.5 17.5-23.5-1-12-6-23.5l-5-11.5-103-147-11.5-7.5q-11.5-7.5-25.5-7.5t-27 14.5l-13 14.5-130 217z" />
<glyph unicode="&#x69;" glyph-name="uni69" data-tags="uni69" d="M154 391q0-104 26-188t71-143q46-59 108.5-91.5t135.5-32.5h4.5q68.5 0 134 29.5 67.5 30.5 120.5 81.5 52 50 84 114.5t32 131.5q0 77-19 132t-50 96q-32 40-73.5 69.5t-85.5 55.5q6.5-34.5 6.5-65.5 0-29.5-6-55.5-12.5-53-42.5-87-30-33-74.5-45.5-20-5.5-42-5.5-26 0-54.5 8 72 117.5 72 187v5.5q-3 70.5-31 123.5-27 53-51.5 106.5-10.5 23-10.5 52 0 39.5 19 90.5-51-37-100-102.5t-88-144.5q-38-78-61.5-162.5t-23.5-159.5zM245.5 301.5q8.5 92.5 76.5 202.5-8.5-38-8.5-73 0-23.5 4-45.5 9.5-54.5 34.5-94.5 24-40 59-63t72-23q41 0 74.5 18t58.5 50q26 32 44 75.5t30 93.5q66-50 85-124 8-31 8-61.5 0-41.5-15-80.5-26-69-95-118.5t-178-51.5h-7.5q-68.5 0-127 34.5-61.5 36.5-92.5 102.5-24.5 52-24.5 120 0 18.5 2 38.5z" />
<glyph unicode="&#x6a;" glyph-name="linkedin" data-tags="linkedin" d="M0 833q0 12 2.5 24t6.5 23q5 11 11.5 21t15.5 19 19.5 16 20.5 11q11 5 23 7.5t25 2.5 25-2.5 23-7.5q10-4 20.5-11t19.5-16 15.5-19 11.5-21q4-11 6.5-23t2.5-24q0-13-2.5-25t-6.5-23q-5-11-11.5-21t-15.5-19-19.5-16-20.5-11q-11-5-23-7t-25-2-25 2-23 7q-10 4-20.5 11t-19.5 16-15.5 19-11.5 21q-4 11-6.5 23t-2.5 25zM7-36v645q0 5 2 9.5t5 8.5q4 4 8.5 6t10.5 2h182q6 0 10.5-2t8.5-6q3-4 5-8.5t2-9.5v-645q0-5-2-9.5t-5-8.5q-4-4-8.5-5.5t-10.5-1.5h-182q-6 0-10.5 1.5t-8.5 5.5q-3 4-5 8.5t-2 9.5zM341-36v645q0 5 2 9.5t6 8.5 8.5 6 9.5 2h177q5 0 9-1t7-3 5-5 3-8 1.5-8.5 0.5-5.5v-16q18 16 38 28t42 20q23 8 49 12t54 4q32 0 60-4t53-12 46.5-19.5 39.5-27.5 31.5-36 22.5-43q9-24 13.5-51.5t4.5-58.5v-435q0-6-2-10.5t-6-8.5-8.5-5.5-9.5-1.5h-187q-5 0-9.5 1.5t-8.5 5.5-6 8.5-2 10.5v392q0 14-1.5 25t-3.5 21-6 17.5-9 14.5q-5 6-11.5 10.5t-15.5 7.5-20 4.5-24 1.5q-16 0-30-2.5t-25-6.5q-12-5-21-12.5t-15-16.5q-7-10-12-21.5t-8-24.5-5-28.5-2-32.5v-350q0-5-2-9.5t-6-8.5q-3-4-8-5.5t-10-1.5h-183q-5 0-9.5 1.5t-8.5 5.5-6 8.5-2 9.5z" />
<glyph unicode="&#x6b;" glyph-name="uni6B" data-tags="uni6B" d="M72 303q0 37 6 71t18 65q12 32 30 61t41 56q27 30 56.5 52t62.5 37q34 15 70.5 22t76.5 7q17 0 33.5-1t31.5-4q16-3 31-6.5t29-9.5q-4-9-8.5-19t-8.5-21q-3-11-5.5-22.5t-4.5-23.5q-11 5-23 8.5t-24 5.5-25 3.5-26 1.5q-28 0-54-5.5t-49-15.5q-24-10-46-26t-42-36q-20-21-35-44t-25-48q-10-26-15-53t-5-57q0-19 2.5-37.5t6.5-36.5q5-17 11.5-34.5t16.5-33.5q9-16 19.5-31t22.5-27q13-13 26.5-24t29.5-20q10-6 21-10.5t22-8.5 22-7 23-5q99 39 147.5 138.5t67.5 206.5q18 100.5 18 183v8.5q-1 85.5-2 94.5-4 12-14.5 40.5t-28.5 68.5q-18 41-42.5 90.5t-56.5 103.5l63-68t79-233v-2l2-6q51.5-136.5 51-244 0-137.5-84-226.5l-150-158.5q18 0 35.5 2t34.5 7q16 4 32 10.5t32 15.5q15 9 29 20t26 24q13 12 23.5 27t19.5 31 16 33.5 11 34.5q5 18 7 36.5t2 37.5q0 16-1 30.5t-4 29.5q-3 14-7 27.5t-10 26.5q10 2 20 5t20 7q11 4 22 9.5t23 12.5q7-17 12-34.5t9-35.5q3-18 5-37t2-39q0-37-6.5-71.5t-19.5-66.5q-12-32-31-62t-44-57q-25-28-54-48.5t-62-34.5q-32-14-68-20.5t-76-6.5-76 6.5-69 20.5q-32 14-61 34.5t-54 48.5q-25 27-44 57t-32 62q-12 32-18.5 66.5t-6.5 71.5zM432 22l1-1 1 1h-2zM629.5 657q-5.5 15.5-5.5 31 0 43.5 44 88l24 18q24 18 84 33l45.5 20q45.5 20 78.5 89l38-83q18-39.5 18-88 0-54-22-119l-20.5-41.5q-20.5-41.5-63.5-66.5-16-10-36-15.5-13-3.5-27-3.5-7.5 0-16 1-23 2-47.5 14t-50.5 37l104 68.5q104 68.5 110 139.5l-53-76q-53-76-183-105z" />
<glyph unicode="&#x6c;" glyph-name="uni6C" data-tags="uni6C" d="M76 263q0 6 3 12l157 277v1l-100 172q-3 7-3 12.5t2 10.5q3 5 8.5 7t12.5 2h147q9 0 15.5-2.5t11.5-6.5q4-4 8-8.5t6-9.5l50.5-88.5t51.5-88.5q-5-8-82-145l-77-137q-3-5-6.5-10.5t-8.5-9.5-11-6.5-15-2.5h-147q-7 0-12 3t-8 7q-3 5-3 11zM408 349q8 14 168.5 298l160.5 284q2 6 5.5 11t8.5 9 11 6.5 14 2.5h149q7 0 12-2.5t8-7.5 3-11-3-12l-327-578q-1 0-1-0.5t1-0.5l208-380q3-6 3-12t-3-11-8-7-11-2h-148q-8 0-14.5 2.5t-11.5 6.5-9 9-6 10l-105 192q-105 192-105 193z" />
<glyph unicode="&#x6d;" glyph-name="myspace" data-tags="myspace" d="M0 134v72q0 29 11 55t31 46q19 19 45 30.5t56 11.5q29 0 55-11.5t46-30.5q19-20 30.5-46t11.5-55v-72h-286zM11 510q0 27 10.5 51t27.5 42q18 18 42 28.5t52 10.5q27 0 51-10.5t42-28.5 28.5-42 10.5-51-10.5-51.5-28.5-41.5q-18-18-42-28.5t-51-10.5q-28 0-52 10.5t-42 28.5q-17 17-27.5 41.5t-10.5 51.5zM317 134v80q0 33 12.5 62t34.5 50q21 22 50 34.5t62 12.5 62-12.5 51-34.5q21-21 33.5-50t12.5-62v-80h-318zM329 552q0 30 11.5 57t31.5 47 47 31.5 57 11.5q31 0 57.5-11.5t46.5-31.5 31.5-47 11.5-57q0-31-11.5-57.5t-31.5-46.5-46.5-31.5-57.5-11.5q-30 0-57 11.5t-47 31.5-31.5 46.5-11.5 57.5zM667 134v90q0 37 14 69.5t38 56.5 56.5 38.5 69.5 14.5 69.5-14.5 57.5-38.5q24-24 38-56.5t14-69.5v-90h-357zM681 597q0 34 13 64t35 52q23 22 52.5 35t63.5 13 64-13 52-35q23-22 35.5-52t12.5-64-12.5-64-35.5-52q-22-22-52-35t-64-13-63.5 13-52.5 35q-22 22-35 52t-13 64z" />
<glyph unicode="&#x6e;" glyph-name="uni6E" data-tags="uni6E" d="M0 284v123h20v-123h-20zM51 243v194h21v-194h-21zM92 233v225h21v-225h-21zM133 222v226h21v-226h-21zM184 222v297h21v-297h-21zM225 222v338h21v-338h-21zM276 222v359h21v-359h-21zM317 222v369h21v-369h-21zM369 222v359h20v-359h-20zM410 222v348h20v-348h-20zM451 222v389h20v-389h-20zM502 222v420h20v-420h-20zM532 240v400q0 6 3 9.5t11 5.5q9 4 18.5 6.5t20.5 4.5q10 2 20.5 3t20.5 1q44 0 83-15.5t68-42.5q30-28 49-65t23-80q5 3 11 4.5t12 3.5q7 1 13 1.5t13 0.5q26 0 49-10t40-27 27-40 10-49-9.5-49-27.5-40q-17-17-39.5-27t-49.5-10h-351q-6 1-10.5 5t-4.5 10z" />
<glyph unicode="&#x6f;" glyph-name="uni6F" data-tags="uni6F" d="M0.5 684q1.5 13 7.5 25 6 11 16 19.5t24 13.5q95 28 217 39 64 6 129.5 6 59.5 0 120.5-5 128-11 252-44t224-93q12-7 20-17.5t11-23.5q2-8 2-16.5 0-4.5-0.5-9-1.5-13.5-8.5-25.5-8-12-18.5-20t-23.5-11q-12-3-25.5-1t-25.5 9q-87 51-197 80t-224 38q-56 4.5-110 4.5-57.5 0-113-5-108-9.5-191-34.5-14-4-27-2.5t-24 7.5q-12 6-20.5 16t-12.5 24q-3 9.5-3 19 0 3.5 0.5 7zM49 451q1 11 6 20 5 10 13.5 17t19.5 10q98 30 205.5 38 41 3 81.5 3 66 0 132-8 106-12 206-44.5t183-83.5q10-6 16.5-15.5t9.5-19.5q1-5.5 1-12 0-4.5-0.5-9-1.5-11-7.5-21t-15.5-16.5-19.5-9.5q-10-2-21-0.5t-21 7.5q-73 45-162 73.5t-183 39.5q-58 6.5-116.5 6.5-37 0-74-2.5-95.5-7-181.5-33-11-3-22-2t-21 6q-9 5-16.5 13.5t-10.5 19.5q-2 9-2 17.5v5.5zM79.5 236q1.5 9 5.5 16 5 7 12 12.5t16 7.5q103 23 198.5 30 39.5 3 77 3 54 0 105.5-6 88-11 167.5-37.5t150.5-69.5q8-5 13-12.5t7-15.5q1.5-6 1.5-12 0-3-0.5-5.5-1-8.5-6-16.5t-12.5-13-15.5-7q-5.5-1.5-11-1.5-3 0-6 0.5-9 1-17 6-63 39-134.5 62.5t-150.5 32.5q-45 4.5-93 4.5-36 0-73-2.5-87-6-181-28-9-2-17.5-0.5t-16.5 6.5q-7 5-12 12t-7 16q-1 5-1 10.5 0 3.5 0.5 7.5z" />
<glyph unicode="&#x70;" glyph-name="uni70" data-tags="uni70" d="M0 448q0-106 40-199.5t110-162.5q69-70 162.5-110t199.5-40 199.5 40 162.5 110q70 69 110 162.5t40 199.5-40 199-110 163q-69 69-162.5 109.5t-199.5 40.5-199.5-40.5-162.5-109.5q-70-70-110-163t-40-199zM117 447q0 13 0.5 25.5t2.5 25.5 4 25.5 5 25.5q2 7 4.5 14.5t5.5 15.5q14 43 38 81t56 70q31 32 69 56.5t81 39.5q16 6 32.5 10t32.5 7q17 3 34 4.5t34 1.5q50 0 98-12.5t91-35.5q44-23 80.5-56.5t64.5-74.5q7-11 13-22t11-22q6-11 11-22.5t9-22.5h-1q3-8 5.5-16t4.5-15q3-13 5.5-25.5t3.5-25.5q2-13 2.5-26t0.5-26q0-24-4.5-47.5t-16.5-40.5q-11-16-31-21-6-1.5-12.5-1.5-16.5 0-37.5 8.5-14 6-27.5 15t-25.5 20q-11 11-21.5 23t-19.5 25q-10 14-20.5 28t-21.5 28q-10 14-21 27.5t-23 27.5q-11 12-22 24.5t-23 24.5q-11 11-23 22.5t-24 22.5q-13 11-26 21.5t-26 20.5q-14 9-28.5 17.5t-28.5 16.5q-10 4-20.5 8.5t-20.5 8.5q-10 3-20.5 6.5t-21.5 6.5q-2 1-7 2.5t-7-1.5q-2-2-1.5-5t1.5-5q0-4 0.5-8.5t1.5-8.5q3-27 5-54 1.5-18 1.5-36 0-9-0.5-18-1-27-4.5-53.5t-11.5-52.5q-5-13-11-26.5t-14-25.5-17-23-20-21q-9-8-19.5-16t-22.5-14-24.5-9.5-24.5-2.5q-5 0-9.5 1t-9.5 2q-13 5-20.5 14t-11.5 20q-4 12-5 24.5t-1 24.5z" />
<glyph unicode="&#x71;" glyph-name="uni71" data-tags="uni71" d="M0 438q0 69 17 123.5t50 92.5q34 38 83 58t114 20q58 0 103-11t79-36 58.5-65 43.5-97l38-117q11-32 26.5-59t38.5-47 55-31 76-11q30 0 53 3.5t38 10.5q16 8 23.5 19.5t7.5 27.5q0 13-4 24t-13 20-24.5 16.5-37.5 12.5l-80 19q-37 8-62.5 22t-42.5 33q-16 19-23.5 43.5t-7.5 54.5q0 48 17.5 80.5t47.5 51.5q29 20 66.5 28t77.5 8q44 0 80-8.5t62-26.5 41-46 18-68l-117-14q-2 19-8.5 32.5t-17.5 22.5q-12 8-28 12.5t-37 4.5q-20 0-35.5-4.5t-25.5-12.5q-11-8-17-20t-6-27q0-13 3.5-23.5t10.5-19.5q8-8 21-14t32-11l75-16q38-9 67-23t48-34q20-21 30-48t10-63q0-44-17.5-75t-49.5-50q-33-19-77.5-28t-99.5-9q-76 0-129 16t-88 44q-36 28-58 65.5t-36 79.5l-37 118q-11 32-23.5 59.5t-30.5 48.5q-19 21-45.5 32.5t-65.5 11.5q-26 0-52-10t-47-34q-20-23-32.5-60.5t-12.5-91.5q0-42 10.5-76t28.5-57q18-24 43.5-37t56.5-13q68 0 110 34l42 34 38-102-48.5-31t-147.5-31q-62 0-109.5 18t-80.5 52q-32 35-49 86.5t-17 118.5z" />
<glyph unicode="&#x72;" glyph-name="youtube" data-tags="youtube" d="M88 230q0 25 0.5 50.5t1.5 50.5q2 26 5 51t8 49q4 17 12.5 31t20.5 25 27 18 32 9q39 4 78.5 6.5t79.5 3.5 79.5 1.5 79.5 0.5 79.5-0.5 79.5-1.5 79.5-3.5 78.5-6.5q17-2 32-9t27-18 20.5-25 12.5-31q6-24 9-49t4-51q1-25 1.5-50.5t0.5-50.5q0-24-0.5-49.5t-1.5-50.5q-2-26-5-51t-8-49q-4-17-12.5-31.5t-20.5-25.5-27-17.5-32-8.5q-39-5-78.5-7t-79.5-3q-40-2-79.5-2h-159t-79.5 2q-40 1-79.5 3t-78.5 7q-17 2-32 8.5t-27 17.5-20.5 25.5-12.5 31.5q-5 24-8 49t-5 51q-1 25-1.5 50.5t-0.5 49.5zM154 376h61v-328h51v328h62v51h-174v-51zM225 960q5-12 9.5-25t8.5-27q5-14 9.5-28t9.5-27q7-20 12-37.5t8-32.5q4-15 7.5-27.5t7.5-23.5v-162h51v162l75 228h-58l-39-151-41 151h-60zM338 106q0-15 1-25t3-17q2-5 5-9t7-7q4-2 9-3.5t11-1.5q7 0 13.5 2t13.5 7q7 4 14 10.5t15 15.5v-30h51v287h-51v-221q-8-12-15.5-18t-14.5-6q-6 0-8.5 3t-3.5 9q0 1 0.5 6t0.5 14v213h-51v-229zM430 669v100q0 12 0.5 22t2.5 18q1 9 3.5 15.5t6.5 12.5q6 7 12 12.5t13 9.5q7 3 15.5 5t17.5 2q10 0 18.5-2t15.5-5q7-4 13-9.5t11-12.5q5-6 7.5-12.5t4.5-15.5q1-8 1.5-18t0.5-22v-100q0-11-0.5-21t-2.5-18q-1-9-4-15.5t-7-12.5q-5-7-11.5-12.5t-13.5-9.5q-7-3-15.5-5t-18.5-2q-9 0-17.5 2t-15.5 5q-7 4-13 9.5t-11 12.5q-4 6-6.5 12.5t-4.5 15.5q-1 8-1.5 18t-0.5 21zM471 660q0-10 1.5-17.5t5.5-12.5q3-5 7.5-7.5t11.5-2.5q6 0 10.5 2.5t8.5 7.5q3 5 4.5 12.5t1.5 17.5v120q0 10-1.5 17.5t-4.5 12.5q-4 4-8.5 6.5t-10.5 2.5q-7 0-11.5-2.5t-7.5-6.5q-4-5-5.5-12.5t-1.5-17.5v-120zM532 48h41v26q8-7 15.5-13t14.5-10q6-4 13-6t14-2q8 0 14 2t12 6q5 4 9 10t6 14q2 4 2.5 10t1.5 13q0 7 0.5 15.5t0.5 18.5v131t-1 16q0 7-1 12.5t-2 9.5q-3 8-7 14t-10 10q-5 4-12 6t-14 2-14-2-13-6q-7-3-14-9t-15-14v125h-41v-379zM573 102v173q8 6 14.5 9t13.5 3q5 0 9.5-2.5t7.5-7.5 5-12 2-17v-120q0-10-2-17t-5-12-7.5-7-9.5-2q-7 0-13.5 3t-14.5 9zM614 637q0-15 2.5-25.5t5.5-17.5q1-5 4.5-9t8.5-7q5-2 10.5-3.5t11.5-1.5q7 0 14.5 2t15.5 7q7 4 14.5 10.5t15.5 15.5v-38h51v287h-51v-213q-8-12-16.5-18t-16.5-6q-5 0-7 3t-3 9q0 1 1 6t1 14v205h-62v-220zM717 139q0-12 1-21.5t4-18.5q2-8 5-15t7-12q6-7 12.5-12.5t14.5-9.5q8-3 16.5-5t19.5-2q10 0 19 2t16 6q8 4 15 9.5t12 13.5q2 3 4 6.5t3 7.5q2 4 2.5 8t1.5 8v36h-50q0-15-0.5-22.5t-0.5-9.5q-2-10-8-14.5t-16-4.5q-6 0-11.5 2.5t-8.5 7.5-5 12.5-2 17.5v52h102v57q0 11-0.5 21t-2.5 18-4.5 15-6.5 12q-6 7-12 12.5t-14 9.5q-7 4-15.5 5.5t-18.5 1.5-18.5-1.5-16.5-5.5-15-9.5-12-12.5q-5-5-8-12t-5-15-3-18-1-21v-99zM768 222h51v26q0 10-1.5 17t-4.5 12-8 7.5-11 2.5q-7 0-11.5-2.5t-8.5-7.5q-3-5-4.5-12t-1.5-17v-26z" />
<glyph unicode="&#x73;" glyph-name="vimeo" data-tags="vimeo" d="M0 652q19 17 38 33.5t37 33.5q19 17 37.5 33.5t36.5 33.5q26 21 48 38t41 28q19 12 35 18t28 8q5.5 0.5 11 0.5 23.5 0 43-7 24-8.5 43-29.5 18-20 30.5-52t19.5-76q8-47 14-85.5t12-67.5q5-29 9-49.5t7-32.5q8-39 17-68.5t19-48.5q9-20 19-29.5t21-9.5q8 0 18 6t22 19 26 32 30 44q16 26 28.5 48t21.5 42q8 19 13 35.5t6 29.5q1 9 1 16.5 0 12-2 22-3 16.5-12 27.5-8 11-22 16.5t-34 5.5q-9 0-18.5-1t-18.5-3q-10-3-19.5-6t-19.5-7q19 62 46.5 108t63.5 76 81 44q39.5 12 85 12h13q39-1 68-14.5t48-38.5q18-26 26.5-63.5 7-30.5 7-69 0-9-0.5-18.5-2-38-16-82t-40-96q-26-51-64.5-109t-88.5-123q-53-68-101-119t-92-85-84.5-50.5-76.5-16.5q-22 0-42.5 10t-39.5 31-36.5 52-32.5 72q-10 38-20.5 76t-20.5 75q-11 38-21 76t-21 76q-11 41-23 72t-24 52q-13 21-25.5 31t-25.5 10q-6 0-26-12t-55-36z" />
<glyph unicode="&#x74;" glyph-name="uni74" data-tags="uni74" d="M148 58l43-43 1 2 89 422-89-425 112 11 62 343 20 12 1 1 2 13 1 6 20 161-20 3-15-23-16-108-72 16-28-24-13-54-14-11-83-299zM300 2l54-23 12 3 3 1-1-10 88-37 179 30v9l3 1 28-4v1l-3 1 95 16-4 19h1l29-8 39 8-1 8v-1l55 10-77 369-32 12-35-14-9 57-65 25-21 211 33 34-137 88-23 14-9 5-104-138 26-19-34-270-2-19v-1l12-7 31-16-2-16v1l2 15-1 1h-1l-41 22v1l-2-1-20-12-62-343zM411 439l1 12 68 48v-11zM419 503l1 8 62 51 1-1v-10l-63-50zM425 551l1 5v8l60 56-1-12zM431 601l2 14 55 56-1-13zM438 663l2 11 50 47-1-11zM481 332l5 91zM488 441v0 0l5-1 2-1-3 1zM512 822l22-15-7 153h-4zM545 706v37l23-12 1-38zM546 462l32-12v-55l-7 2 1 19-25 7zM546 544v48l27-13 2-47zM546 605v38l25-13 2-37zM546 657l1 35 24-13v-35zM547 479v49l29-12 2-48zM588 721l21-12 2-38-22 12zM590 668l23-11 1-35-23 12zM591 620l23-12 3-37-24 12zM593 569l25-11 3-46-26 11zM595 366l23-9 2-53 4-80 9-199 2-37v-5l-2 40-9 200-4 81-23 8zM595 444l26-7 3-43-8-4v-7l-19 7zM596 506l26-10 2-46-27 9zM657 16l2-43h-1z" />
<glyph unicode="&#x75;" glyph-name="uni75" data-tags="uni75" d="M63 806h175q16-142 43.5-250t62.5-191 76.5-146.5 85.5-117.5q25 24 48.5 52.5t45.5 59.5q23 32 43.5 66.5t39.5 71.5q-44 22-79 56.5t-59 78.5-37 96-13 109 16.5 106 46.5 85q31 37 75.5 57t100.5 20q55 0 97.5-16.5t70.5-48.5q29-32 44-78t15-105q0-21-2.5-44t-6.5-46q-5-23-11.5-44.5t-15.5-41.5q-27-5.5-49-5.5-44 0-66.5 22l-33.5 32.5q3 10 6.5 23t6.5 28 5 31 2 31q0 27-5 47.5t-14 34.5q-8 13-20.5 20t-27.5 7q-16 0-29-7.5t-23-22.5q-9-15-14.5-36.5t-5.5-50.5q0-59 18-105t49-77q31-32 72.5-48.5t90.5-16.5q8 0 17 0.5t18 1.5 19 2.5 22 4.5v-122q-16-4-32-6.5t-32-4.5-31-2.5-29-0.5q-32-68-74.5-129.5t-84.5-110.5q-42-48-78-81t-55-44q-12-7-24-10.5t-25-3.5q-12 0-24.5 4t-26.5 12q-23 14-75 63t-110 148q-59 99-114 256t-85 387z" />
<glyph unicode="&#x76;" glyph-name="flickr" data-tags="flickr" d="M0 448q0 48 18 90t50 74q31 31 73.5 49.5t90.5 18.5 90.5-18.5 73.5-49.5q32-32 50-74t18-90q0-49-18-91t-50-74q-31-31-73.5-49.5t-90.5-18.5-90.5 18.5-73.5 49.5q-32 32-50 74t-18 91zM560 448q0 48 18 90t50 74q31 31 73.5 49.5t90.5 18.5 90.5-18.5 73.5-49.5q32-32 50-74t18-90q0-49-18-91t-50-74q-31-31-73.5-49.5t-90.5-18.5-90.5 18.5-73.5 49.5q-32 32-50 74t-18 91z" />
<glyph unicode="&#x77;" glyph-name="uni77" data-tags="uni77" d="M0 355h96q1-3 1.5-5.5t1.5-5.5q2-10 6.5-19.5t10.5-16.5q6-8 14.5-13t19.5-8q12-3 23-3.5t22 2.5q10 3 20 8.5t18 15.5q11 11 17.5 26.5t7.5 32.5v7q0 12.5-2.5 25-3.5 16-12.5 30-10 14-24 22.5t-31 11.5q-7.5 1.5-15 1.5-8.5 0-17.5-2-16.5-3.5-30.5-13.5l-8-6t-6-7q-5-8-12-10t-16-1h-68q6 33 11.5 66t11.5 66 12 65.5 12 65.5h266v-79h-143.5t-44.5 1q-5 0-7-2t-3-7q-2-12-4-23.5t-4-23.5-4.5-23.5-4.5-23.5v-6q14 13 28.5 20.5t30.5 11.5q15 4 31.5 4t33.5-3q18-3 33-10t28-18q12-10 22.5-23t18.5-29q2 4 3.5 7.5t3.5 6.5q12 24 29 42t39 29q21 11 45.5 15 12 2 24.75 2t25.75-2q16-2 31-6.5t29-11.5 26.5-16 24.5-20l28-28q6-7 13-14.5t14-14.5l2.5 2.5t2.5 3.5q7 7 14 14.5t15 15.5q7 7 14 14.5t14 14.5q10 9 20.5 16.5t22.5 13.5q11 6 23.5 10t26.5 6q13 1.5 26.5 1.5 11.5 0 23-1 25.5-2.5 49.5-12.5 24-11 43.5-29t31.5-46q10-23 14.5-45t4.5-45q-1-22-6.5-44t-16.5-44q-10-20-23.5-35t-30.5-25-36.5-15.5-41.5-7.5q-5.5-0.5-11.5-0.5-11 0-22 1.5-16.5 2-32.5 7-15 5-29.5 13t-28.5 19q-7 6-14.5 13t-14.5 14l-14 14t-15 14l-12 12q-4-4-7.5-8t-7.5-8l-16-16q-5-5-11-10.5t-12-11.5l-12-10t-13-10q-16-12-33-19.5t-35-10.5q-16-3.5-33-3.5h-4q-19 0.5-38 4.5t-35 12-29 19q-14 11-24.5 25.5t-19.5 31.5q-1 1-1.5 2.5t-1.5 3.5l-1 1q-2-4-4.5-8t-5.5-8q-2-4-4.5-7.5t-5.5-7.5q-12-18-27-31t-33-22q-17-8-36.5-13t-40.5-5q-12 0-24 0.5t-24 2.5-23.5 5-22.5 8q-24 10-40.5 24.5t-27.5 31.5q-11 18-16 37.5t-6 40.5zM418 387l-1-10q0-12.5 4-23.5 5-15.5 15-26.5 10-12 24.5-18t31.5-6q8 1 15.5 2t14.5 3 14 5 13 7q10 5 18.5 11.5t16.5 14.5q8 7 16 14.5t16 15.5q2 2 2 4t-2 4q-7 6-13 12t-12 11l-12 12t-12 11-11.5 9-12.5 8q-6 4-12.5 6.5t-13.5 5.5q-13 4-25.5 4-3.5 0-7-0.5-15.5-1.5-28.5-8.5-12-7-21.5-19t-13.5-28q-2-5-2.5-10t-0.5-10zM730 381q8-7 15-14t14-13 14-12.5 14-12.5q8-6 16.5-11t17.5-9q9-3 19-4.5t20-1.5q14 1 25.5 4.5t20.5 11.5q9 7 15 17.5t9 23.5q1 5 1.5 9.5t0.5 8.5v9.5t-1 9.5q-2 16-9 29t-18 21q-11 9-25 13-11 3-23.5 3h-6.5q-10-1-19-4t-17-7-15.5-9-14.5-12q-7-6-13.5-12t-12.5-12q-7-6-13.5-12.5z" />
<glyph unicode="&#x78;" glyph-name="instagram" data-tags="instagram" d="M0 46q0-5 1-10 2-21 12.5-39.5t26.5-31.5q15-14 34.5-21.5t41.5-7.5h804q22 3 40.5 13t32.5 26 22 35.5 8 41.5v801q-3 23-13 42.5t-26 33.5-36.5 22.5-43.5 8.5h-589.5t-196.5-1h-10.5t-10.5-1q-22-5-40-15.5t-30-25.5q-13-16-20-35.5t-7-42.5v-793zM113 95v426q0 2 0 1.5t0 6.5h93q-7-30-9-59.5-1-12-1-23.5 0-17.5 2-34 3-29 12-56.5t23-53.5q10-20 23-38t28-34 32.5-29.5 37.5-25.5q38-22 81-32.5 39.5-9.5 78.5-9.5h7.5q44 1 86 14.5t79 38.5q21 14 39 30.5t32 35.5q15 19 27 40t21 45q9 23 14 46t7 47q0.5 6.5 0.5 13.5 0 17-2 34.5-2.5 25-8.5 51h85q0-7 0-6.5t0-0.5q0-54 0.5-107t0.5-107q0-53 0.5-106.5t0.5-106.5q0-9-3-16.5t-8-13.5q-5-5-12.5-8t-16.5-3h-708q-9 0-16.5 3t-13.5 8q-6 6-9 13.5t-3 16.5zM314 447q0 41 15.5 77t42.5 63q27 26 62.5 41.5t76.5 15.5 77-15.5 62-41.5q27-27 42.5-63t15.5-76q0-41-15.5-77t-42.5-63q-26-26-62-41.5t-77-15.5-76.5 15.5-62.5 41.5q-27 27-42.5 63t-15.5 76zM708 684v118q0 8 3 15.5t9 12.5q5 5 12.5 8t15.5 3h117q8 0 15.5-3t12.5-8q6-5 9-12.5t3-16.5v-117q0-8-3-15.5t-9-12.5q-5-5-12-8.5t-16-3.5h-117t-15.5 3-12.5 9q-6 5-9 12.5t-3 15.5z" />
<glyph unicode="&#x79;" glyph-name="wordpress" data-tags="wordpress" d="M0 448q0-106 40.5-199.5t109.5-162.5q70-70 163-110t199-40 199 40 163 110q69 69 109.5 162.5t40.5 199.5q0 105-40.5 198.5t-109.5 162.5q-70 70-163 110.5t-199 40.5-199-40.5-163-110.5q-69-69-109.5-162.5t-40.5-198.5zM52 448q0 25 2.5 49t7.5 48q5 23 12.5 45.5t17.5 44.5l219-602q-57 28-105 70.5t-82 96.5-53 116.5-19 131.5zM127 700q31 47 72.5 85.5t90.5 65.5q50 27 106 42t116 15q45 0 87.5-8.5t82.5-23.5q39-16 74.5-38.5t66.5-50.5h-6q-17 0-31-6.5t-25-18.5q-10-11-15.5-25.5t-5.5-30.5q0-15 3.5-28t9.5-26q7-13 15-26.5t17-27.5q6-12 13-25t12-29q6-15 9.5-33.5t3.5-39.5q0-15-3-31t-7-35q-5-18-11.5-38.5t-13.5-44.5l-46-153-167 494q21 1 37 3l16 2q9 1 13.5 7t3.5 13q0 7-5 12.5t-15 5.5l-43-3t-80-3q-33 0-77 3l-44 3q-9 0-14-5.5t-6-12.5q0-7 4-13.5t13-6.5l15-2q15-2 34-3l71-196-100-302-168 498q21 1 37 3l16 2q9 1 13 7t4 13q-1 7-6 12.5t-14 5.5l-43.5-3q-43.5-3-79.5-3h-30zM382 6l138 401 142-387q0-2 1-3.5t2-3.5q-18-6-36.5-11t-37.5-8q-20-3-39.5-5t-39.5-2q-17 0-33.5 1.5t-32.5 3.5q-17 2-33 5.5t-31 8.5zM743 50l141 406q10 25 16.5 47t10.5 43q4 20 6 39t2 36v12.5t-1 12.5q0 6-0.5 11.5t-1.5 10.5q13-24 23.5-50.5t18.5-54.5q7-27 10.5-56t3.5-59q0-64-16.5-123t-46.5-110-72-93-94-72z" />
<glyph unicode="&#x7a;" glyph-name="tumblr" data-tags="tumblr" d="M197 540v145q15 5 29 11t27 13 24.5 15 22.5 17 20.5 19 18.5 21q8 11 15.5 23t14.5 25 12 27.5 10 30.5q4 17 7.5 35t6.5 38h145v-259h243v-161h-243v-263q0-22 1-40t2-33q1-14 3-24.5t4-16.5 5.5-12 7.5-11q5-5 10.5-9.5t11.5-7.5q8-5 17.5-9t18.5-7q10-2 20.5-3.5t21.5-1.5q19 0 38.5 3.5t38.5 9.5q20 6 39 15.5t38 22.5v-162q-16-7-31.5-13.5t-30.5-12.5q-15-5-29-9.5t-27-7.5q-14-3-27.5-5.5t-28.5-3.5q-14-2-29-2.5t-31-0.5q-17 0-33.5 1t-32.5 3q-15 2-29.5 5.5t-28.5 7.5q-13 5-25.5 10t-24.5 12q-11 6-21.5 13.5t-20.5 15.5q-9 8-17 16.5t-15 17.5q-7 8-12 17t-9 19q-3 9-6 20.5t-5 24.5q-1 13-2 28.5t-1 33.5v359h-113z" />
<glyph unicode="&#xa8;" glyph-name="uniA8" data-tags="uniA8" d="M77 439.5q-24-93.5 2-205.5 25-112 104-205t219-93q133 0 266.5 104t212.5 226 76.5 219-140.5 83q-85-8-139-13.5t-116-8.5-151-6-245-6q-65-1-89-94.5zM152 369q13 61 33 62 142 5 236 11t160 10 114.5 7 98.5 3q52 0 35-65.5t-78-144.5q-60-79-151.5-144.5t-188.5-65.5q-122 0-180 60.5t-75 133.5q-17 72-4 133zM186 851q-2-18 2.5-35t16.5-30q13-14 33.5-21.5t49.5-7.5q36 1 62 10.5t42 24.5q17 15 24.5 34t4.5 38q-1 16-10 30.5t-24 25.5-37.5 18-51.5 7q-24 0-43.5-8t-33.5-21q-15-13-23.5-30t-11.5-35zM651 864q-2-19 3-36.5t18-31.5q14-14 35.5-21.5t51.5-5.5q34 2 58.5 10.5t40.5 21.5q16 14 23.5 30t7.5 33q1 19-8 37t-26 32q-16 14-40.5 21t-54.5 5q-24-2-43.5-11t-33.5-22q-13-13-21.5-29t-10.5-33z" />
<glyph unicode="&#xad;" glyph-name="uniAD" data-tags="uniAD" d="M67-29q-1-7 1-13.5t6-11.5 10-7.5 13-2.5h176q10 0 18.5 3t15.5 9q6 6 10.5 13.5t6.5 17.5l40 255q2 9 6.5 17t11.5 14q6 6 14.5 9t18.5 3h116q91 0 163 22t125 66q52 44 85 109.5t47 152.5q6 39 6 73t-5 64q-6 29-18 54.5t-30 46.5q-20 23-47 41t-61 30q-34 11-74 17.5t-87 6.5h-368q-10 0-18.5-3.5t-15.5-9.5q-6-6-10.5-13.5t-6.5-17.5zM403 482l39 247q1 6 4 10.5t7 8.5q4 3 9 5t11 2h25q25 0 49-0.5t45-4.5q21-3 38.5-11t29.5-22q7-8 12-19t7-23q2-13 2-28t-3-33q-8-49-29-76t-51-39q-31-13-66.5-15t-72.5-2h-56z" />
<glyph unicode="&#x2010;" glyph-name="uni2010" data-tags="uni2010" d="M67-29q-1-7 1-13.5t6-11.5 10-7.5 13-2.5h176q10 0 18.5 3t15.5 9q6 6 10.5 13.5t6.5 17.5l40 255q2 9 6.5 17t11.5 14q6 6 14.5 9t18.5 3h116q91 0 163 22t125 66q52 44 85 109.5t47 152.5q6 39 6 73t-5 64q-6 29-18 54.5t-30 46.5q-20 23-47 41t-61 30q-34 11-74 17.5t-87 6.5h-368q-10 0-18.5-3.5t-15.5-9.5q-6-6-10.5-13.5t-6.5-17.5zM403 482l39 247q1 6 4 10.5t7 8.5q4 3 9 5t11 2h25q25 0 49-0.5t45-4.5q21-3 38.5-11t29.5-22q7-8 12-19t7-23q2-13 2-28t-3-33q-8-49-29-76t-51-39q-31-13-66.5-15t-72.5-2h-56z" />
<glyph unicode="&#x2011;" glyph-name="uni2011" data-tags="uni2011" d="M67-29q-1-7 1-13.5t6-11.5 10-7.5 13-2.5h176q10 0 18.5 3t15.5 9q6 6 10.5 13.5t6.5 17.5l40 255q2 9 6.5 17t11.5 14q6 6 14.5 9t18.5 3h116q91 0 163 22t125 66q52 44 85 109.5t47 152.5q6 39 6 73t-5 64q-6 29-18 54.5t-30 46.5q-20 23-47 41t-61 30q-34 11-74 17.5t-87 6.5h-368q-10 0-18.5-3.5t-15.5-9.5q-6-6-10.5-13.5t-6.5-17.5zM403 482l39 247q1 6 4 10.5t7 8.5q4 3 9 5t11 2h25q25 0 49-0.5t45-4.5q21-3 38.5-11t29.5-22q7-8 12-19t7-23q2-13 2-28t-3-33q-8-49-29-76t-51-39q-31-13-66.5-15t-72.5-2h-56z" />
<glyph unicode="&#x2012;" glyph-name="uni2012" data-tags="uni2012" d="M67-29q-1-7 1-13.5t6-11.5 10-7.5 13-2.5h176q10 0 18.5 3t15.5 9q6 6 10.5 13.5t6.5 17.5l40 255q2 9 6.5 17t11.5 14q6 6 14.5 9t18.5 3h116q91 0 163 22t125 66q52 44 85 109.5t47 152.5q6 39 6 73t-5 64q-6 29-18 54.5t-30 46.5q-20 23-47 41t-61 30q-34 11-74 17.5t-87 6.5h-368q-10 0-18.5-3.5t-15.5-9.5q-6-6-10.5-13.5t-6.5-17.5zM403 482l39 247q1 6 4 10.5t7 8.5q4 3 9 5t11 2h25q25 0 49-0.5t45-4.5q21-3 38.5-11t29.5-22q7-8 12-19t7-23q2-13 2-28t-3-33q-8-49-29-76t-51-39q-31-13-66.5-15t-72.5-2h-56z" />
<glyph unicode="&#x2013;" glyph-name="uni2013" data-tags="uni2013" horiz-adv-x="646" d="M66.5-29q-0.5-7 0.75-13.5t3.25-11.5q2.5-5 6-7.5t7.5-2.5h101q6 0 10.75 3t8.75 9q3.5 6 6.25 13.5t3.75 17.5l23 255q1 9 3.75 17t6.75 14q3.5 6 8.25 9t10.75 3h66.5q52.5 0 93.75 22t71.75 66q30 44 49 109.5t27 152.5q3.5 39 3.5 73t-3 64q-3.5 29-10.25 54.5t-17.25 46.5q-11.5 23-27 41t-35 30q-19.5 11-42.5 17.5t-50 6.5h-212q-5.5 0-10.5-3.5t-9-9.5q-3.5-6-6-13.5t-3.5-17.5zM260 482l22.5 247q0.5 6 2.25 10.5t3.75 8.5q2.5 3 5.25 5t6.25 2h14.5q14.5 0 28.25-0.5t25.75-4.5q12-3 22.25-11t16.75-22q4-8 7-19t4-23q1.5-13 1.5-28t-2-33q-4.5-49-16.5-76t-29.5-39q-18-13-38.25-15t-41.75-2h-32z" />
<glyph unicode="&#x2014;" glyph-name="uni2014" data-tags="uni2014" horiz-adv-x="1158" d="M67-29q-1.5-7 1-13.5t7-11.5 11.5-7.5 15-2.5h202.5q11.5 0 21.25 3t17.75 9q7 6 12 13.5t7.5 17.5l46 255q2.5 9 7.5 17t13 14q7 6 16.75 9t21.25 3h133.5q104.5 0 187.5 22t144 66q59.5 44 97.5 109.5t54 152.5q7 39 7 73t-6 64q-6.5 29-20.5 54.5t-34.5 46.5q-23 23-54 41t-70 30q-39.5 11-85.5 17.5t-100 6.5h-423q-11.5 0-21.25-3.5t-17.75-9.5q-7-6-12.25-13.5t-7.25-17.5zM453.5 482l44.5 247q1.5 6 4.75 10.5t8.25 8.5q4.5 3 10.25 5t12.75 2h28.5q29 0 56.5-0.5t51.5-4.5q24.5-3 44.5-11t34-22q8-8 13.75-19t8.25-23q2-13 2-28t-3.5-33q-9-49-33.25-76t-58.75-39q-35.5-13-76.25-15t-83.75-2h-64z" />
<glyph unicode="&#x25fc;" glyph-name="uni25FC" data-tags="uni25FC" horiz-adv-x="965" d="M0-3v965h965v-965h-965z" />
<glyph unicode="&#xe600;" glyph-name="purse" data-tags="purse" d="M895.784 686.84h-110.824v93.628c0 42.5-34.438 76.972-76.97 76.972h-528.46c-42.482 0-76.97-34.472-76.97-76.972v-716.252c0-14.178 11.478-25.656 25.656-25.656h767.566c14.162 0 25.656 11.478 25.656 25.656v596.966c0.002 14.178-11.492 25.658-25.654 25.658zM179.53 823.32h528.46c23.622 0 42.85-19.226 42.85-42.852v-93.628h-614.16v93.628c0 23.626 19.224 42.852 42.85 42.852zM887.32 72.68h-750.64v580.040h750.64v-580.040zM648.48 362.682c0-47.1 38.202-85.268 85.318-85.268s85.282 38.168 85.282 85.268c0 47.114-38.168 85.3-85.282 85.3s-85.318-38.184-85.318-85.3zM784.96 362.682c0-28.206-22.958-51.148-51.162-51.148-28.222 0-51.198 22.942-51.198 51.148 0 28.222 22.974 51.18 51.198 51.18 28.204 0 51.162-22.956 51.162-51.18z" />
<glyph unicode="&#xe601;" glyph-name="b-close2" data-tags="b-close2" horiz-adv-x="896" d="M749.582 749.58c-166.576 166.576-436.586 166.576-603.162 0s-166.576-436.586 0-603.162 436.58-166.57 603.156 0.006c166.578 166.576 166.582 436.58 0.006 603.156zM640.212 279.914l-24.126-24.126-168.084 168.084-168.084-168.084-24.126 24.126 168.084 168.084-168.886 168.886 24.126 24.126 168.886-168.886 168.886 168.886 24.126-24.126-168.886-168.886 168.084-168.084z" />
<glyph unicode="&#xe602;" glyph-name="b-arrow2-top" data-tags="b-arrow2-top" horiz-adv-x="896" d="M448 21.984c235.308 0 426.016 190.708 426.016 426.016s-190.708 426.016-426.016 426.016-426.016-190.708-426.016-426.016 190.708-426.016 426.016-426.016zM384.046 509.606l64.186 64.202 191.99-192.008-24.096-24.096-167.894 167.908-168.692-168.71-24.096 24.098 128.602 128.606z" />
<glyph unicode="&#xe603;" glyph-name="b-arrow2-right" data-tags="b-arrow2-right" horiz-adv-x="896" d="M21.984 448c0-235.308 190.708-426.016 426.016-426.016s426.016 190.708 426.016 426.016-190.708 426.016-426.016 426.016-426.016-190.708-426.016-426.016zM509.606 511.954l64.202-64.186-192.008-191.99-24.096 24.096 167.908 167.894-168.71 168.692 24.098 24.096 128.606-128.602z" />
<glyph unicode="&#xe604;" glyph-name="video-camera" data-tags="video-camera" d="M901.948 669.78l-219.348-131.914v148.974c0 28.254-22.926 51.18-51.18 51.18h-545.92c-28.288 0-51.18-22.926-51.18-51.18v-477.68c0-28.256 22.892-51.18 51.18-51.18h545.92c28.254 0 51.18 22.924 51.18 51.18v151.806l224.178-134.746h82.902v443.56h-87.732zM648.48 209.16c0-9.414-7.666-17.060-17.060-17.060h-545.92c-9.43 0-17.060 7.646-17.060 17.060v477.68c0 9.412 7.63 17.060 17.060 17.060h545.92c9.394 0 17.060-7.648 17.060-17.060v-477.68zM955.56 260.34h-39.318l-233.642 140.444v97.262l228.81 137.612h44.15v-375.318z" />
<glyph unicode="&#xe605;" glyph-name="user-man" data-tags="user-man" d="M512 857.444c-226.146 0-409.44-183.294-409.44-409.44s183.294-409.446 409.44-409.446 409.44 183.302 409.44 409.446c0 226.146-183.294 409.44-409.44 409.44zM512 823.324c206.954 0 375.32-168.366 375.32-375.32 0-91.048-32.62-174.614-86.766-239.672-37.42 15.626-125.75 46.282-180.43 62.426-4.664 1.466-5.398 1.7-5.398 21.108 0 16.028 6.598 32.17 13.028 45.832 6.964 14.844 15.226 39.802 18.192 62.192 8.296 9.63 19.592 28.624 26.856 64.824 6.364 31.906 3.398 43.516-0.832 54.412-0.434 1.15-0.9 2.282-1.234 3.416-1.6 7.48 0.598 46.348 6.064 76.504 3.766 20.692-0.968 64.692-29.456 101.092-17.994 23.008-52.414 51.246-115.288 55.178l-34.486-0.032c-61.81-3.9-96.262-32.138-114.256-55.146-28.488-36.4-33.22-80.4-29.454-101.078 5.496-30.17 7.664-69.038 6.098-76.37-0.332-1.282-0.8-2.416-1.266-3.566-4.198-10.896-7.198-22.508-0.8-54.412 7.23-36.202 18.526-55.194 26.856-64.824 2.932-22.392 11.196-47.348 18.192-62.192 5.098-10.862 7.498-25.64 7.498-46.532 0-19.41-0.734-19.642-5.1-21.024-56.544-16.694-146.542-49.214-180.096-63.908-55.208 65.358-88.562 149.724-88.562 241.772 0 206.952 168.366 375.32 375.32 375.32zM249.968 179.634c38.42 15.684 115.022 43.008 165.336 57.87 29.256 9.23 29.256 33.87 29.256 53.662 0 16.41-1.132 40.602-10.73 61.060-6.598 14.012-14.13 38.036-15.794 56.844-0.366 4.398-2.432 8.464-5.764 11.362-4.832 4.232-14.662 19.726-20.926 50.98-4.964 24.74-2.864 30.156-0.832 35.386 0.866 2.234 1.7 4.432 2.366 6.914 4.098 14.976-0.468 64.174-5.432 91.464-2.164 11.862 0.566 45.566 22.758 73.956 19.892 25.44 50.014 39.618 88.432 42.066l32.354 0.034c39.452-2.482 69.572-16.66 89.498-42.1 22.192-28.39 24.89-62.094 22.724-73.97-4.932-27.274-9.53-76.472-5.432-91.432 0.702-2.5 1.5-4.698 2.366-6.932 2.034-5.23 4.132-10.646-0.8-35.386-6.262-31.254-16.126-46.748-20.958-50.98-3.298-2.898-5.364-6.964-5.764-11.362-1.632-18.808-9.162-42.832-15.76-56.844-7.564-16.078-16.26-37.486-16.26-60.36 0-19.794 0-44.432 29.554-53.746 48.148-14.228 125.118-40.668 165.768-56.652-67.872-67.208-161.134-108.792-263.928-108.792-101.86 0-194.324 40.85-262.032 106.958z" />
<glyph unicode="&#xe606;" glyph-name="upload" data-tags="upload" d="M661.276 360.166l24.124 24.122-173.4 173.4-173.4-173.4 24.126-24.122 132.214 132.214v-540.072h34.12v540.072zM426.7 122.908v34.12h-221.78v580.040h614.16v-580.040h-221.78v-34.12h255.9v648.28h-682.4v-648.28z" />
<glyph unicode="&#xe607;" glyph-name="unlocked" data-tags="unlocked" d="M750.84 465.060h-426.5v204.72c0 103.476 84.2 187.66 187.694 187.66 103.458 0 187.626-84.184 187.626-187.66v-68.24h34.12v68.24c0 122.468-99.294 221.78-221.746 221.78-122.502 0-221.814-99.312-221.814-221.78v-204.72h-119.42v-460.62h682.4v460.62h-102.36zM819.080 38.56h-614.16v392.38h614.16v-392.38z" />
<glyph unicode="&#xe608;" glyph-name="umbrella" data-tags="umbrella" d="M529.060 874.084v51.596h-34.12v-51.596c-274.326-8.998-494.74-233.526-494.74-508.434 0-18.094 1-36.62 3-55.112l33.986 1.216c2.066 57.26 48.514 102.126 105.792 102.126 58.41 0 105.958-47.548 105.958-105.976h34.12c0 58.428 47.548 105.976 105.992 105.976 57.778 0 104.826-46.482 105.892-104.010v-264.164c0-41.566 33.788-75.386 75.372-75.386s75.404 33.82 75.404 75.386h-34.12c0-22.756-18.526-41.266-41.284-41.266s-41.252 18.51-41.252 41.266v262.198h0.1c0 58.428 47.514 105.976 105.958 105.976s105.992-47.548 105.992-105.976h34.12c0 58.428 47.548 105.976 105.958 105.976 56.78 0 103.226-44.45 105.726-101.194l34.022-1.034c1.898 18.094 2.864 36.252 2.864 53.996 0 274.91-220.414 499.438-494.74 508.436zM881.188 448c-53.012 0-99.228-29.606-123.018-73.138-23.79 43.532-70.040 73.138-123.052 73.138s-99.228-29.606-123.018-73.138c-23.79 43.532-70.040 73.138-123.052 73.138s-99.262-29.606-123.052-73.138c-23.79 43.532-70.006 73.138-123.018 73.138-43.316 0-81.936-19.392-107.592-50.164 16.728 246.836 224.080 442.562 476.614 442.562 252.47 0 459.82-195.69 476.582-442.462-25.692 30.688-64.276 50.064-107.394 50.064z" />
<glyph unicode="&#xe609;" glyph-name="basket" data-tags="basket" d="M836.14 772.14h-170.6v34.12c0 37.684-30.554 68.24-68.24 68.24h-170.6c-37.686 0-68.24-30.556-68.24-68.24v-34.12h-170.6v-34.12h35.154l34.152-648.28c0-37.686 30.554-68.24 68.24-68.24h375.32c37.686 0 68.24 30.554 68.24 68.24l33.554 648.28h33.62v34.12zM392.58 806.26c0 18.826 15.328 34.12 34.12 34.12h170.6c18.826 0 34.12-15.294 34.12-34.12v-34.12h-238.84v34.12zM734.912 91.506l-0.066-0.866v-0.9c0-18.794-15.294-34.12-34.12-34.12h-375.32c-18.792 0-34.12 15.326-34.12 34.12v0.9l-0.032 0.9-34.088 646.48h511.202l-33.456-646.514zM494.94 669.78h34.12v-545.92h-34.12v545.92zM427.466 124.958l-34.918 544.854-34.054-2.164 34.92-544.854zM665.774 668.714l-34.054 2.132-34.42-545.92 34.054-2.132z" />
<glyph unicode="&#xe60a;" glyph-name="settings" data-tags="settings" d="M945.040 135.68l-180.946 180.946 24.14 24.142-24.124 24.122-72.354-72.354-120.668 120.636 144.976 145.010c19.31-6.88 39.502-10.362 60.21-10.362 47.782 0 92.714 18.61 126.516 52.38 52.148 52.18 66.942 129.732 37.686 197.556l-9.946 23.090-77.752-77.752-62.608-0.85 0.832 59.71 79.27 79.252-23.042 9.978c-22.608 9.78-46.614 14.744-71.338 14.744-47.798 0-92.714-18.61-126.468-52.396-49.48-49.446-65.376-121.668-41.968-186.876l-144.926-144.926-205.104 205.070 24.142 24.124-132.65 132.664-72.438-72.338 132.714-132.698 24.108 24.122 205.102-205.070-144.944-144.944c-19.358 6.932-39.634 10.43-60.41 10.43-47.782 0-92.712-18.61-126.482-52.396-52.264-52.23-67.026-129.882-37.62-197.79l9.978-23.024 79.254 79.252 59.692 0.8-0.85-62.608-77.752-77.752 23.090-9.948c22.542-9.712 46.448-14.644 71.072-14.644 47.798 0 92.698 18.594 126.468 52.364 49.398 49.414 65.308 121.552 42.050 186.66l145.010 145.028 120.67-120.62-72.406-72.406 24.124-24.122 24.122 24.122 180.93-180.93c16.11-16.126 37.552-25.006 60.326-25.006s44.2 8.88 60.328 25.006c33.258 33.238 33.24 87.352-0.014 120.604zM124.762 811.25l24.14 24.090 84.416-84.416-24.122-24.124-84.434 84.45zM366.334 241.422c23.658-54.928 11.662-117.72-30.554-159.954-27.324-27.322-63.658-42.366-102.342-42.366-11.112 0-22.042 1.234-32.686 3.698l50.198 50.198 1.514 111.522-108.608-1.466-51.816-51.812c-11.396 48.314 2.598 99.294 38.652 135.33 27.34 27.338 63.692 42.4 102.36 42.4 20.042 0 39.468-4.016 57.778-11.946l10.648-4.6 346.214 346.216-4.598 10.646c-23.808 54.994-11.846 117.836 30.454 160.12 27.324 27.34 63.676 42.4 102.344 42.4 11.212 0 22.224-1.266 32.97-3.748l-51.78-51.78-1.5-108.624 111.522 1.516 50.248 50.23c11.262-48.23-2.75-99.11-38.686-135.080-27.356-27.324-63.708-42.384-102.394-42.384-19.976 0-39.35 3.998-57.626 11.862l-10.63 4.582-346.264-346.33 4.582-10.63zM920.934 39.202c-9.68-9.68-22.542-15.012-36.204-15.012-13.678 0-26.522 5.332-36.202 15.012l-180.93 180.93 72.372 72.372 180.946-180.946c19.96-19.96 19.96-52.414 0.018-72.356z" />
<glyph unicode="&#xe60b;" glyph-name="stopwatch2" data-tags="stopwatch2" d="M469.95 418.412c0.666-0.832 1.598-1.534 2.332-2.332 9.396-11.662 23.59-19.26 39.718-19.26 28.254 0 51.18 22.892 51.18 51.18 0 15.026-6.598 28.388-16.86 37.75-1.332 1.5-2.566 3.034-4.532 4.532l-206.82 157.372c-6.030 4.632-14.694 4.864-20.99 0-7.53-5.798-8.932-16.594-3.132-24.124l159.104-205.118zM512 874.466c-5.598 0-11.062-0.632-16.594-0.832v-17.692h-0.466v-186.128h34.12v169.666c208.45-9.030 375.32-180.896 375.32-391.48 0-216.35-175.998-392.348-392.38-392.348s-392.38 176-392.38 392.348c0 108.192 44.016 206.286 115.088 277.324l-24.258 24.258c-77.202-77.168-124.95-183.794-124.95-301.582 0-235.542 190.926-426.468 426.5-426.468s426.5 190.926 426.5 426.468c0 235.542-190.926 426.466-426.5 426.466z" />
<glyph unicode="&#xe60c;" glyph-name="tag" data-tags="tag" d="M793.008 908.62h-224.812l-516.816-515.464 404.908-405.776 516.332 514.966v227.078l-179.612 179.196zM938.5 516.508l-482.144-480.878-356.712 357.476 482.662 481.394h196.59l159.604-159.236v-198.756zM699.76 704.018c0-37.552 30.604-68.090 68.24-68.090s68.24 30.538 68.24 68.090c0 37.568-30.606 68.122-68.24 68.122s-68.24-30.554-68.24-68.122zM802.12 704.018c0-18.726-15.312-33.97-34.12-33.97s-34.12 15.244-34.12 33.97c0 18.742 15.31 34.002 34.12 34.002s34.12-15.26 34.12-34.002z" />
<glyph unicode="&#xe60d;" glyph-name="target" data-tags="target" d="M513.8 589.82c-75.372 0-136.498-61.094-136.498-136.498 0-75.37 61.126-136.496 136.498-136.496 75.386 0 136.462 61.126 136.462 136.496 0 75.404-61.076 136.498-136.462 136.498zM513.8 350.948c-56.444 0-102.378 45.93-102.378 102.376s45.932 102.378 102.378 102.378c56.428 0 102.342-45.932 102.342-102.378s-45.914-102.376-102.342-102.376zM513.782 726.282c-150.758 0-272.96-122.186-272.96-272.96 0-150.758 122.202-272.96 272.96-272.96s272.96 122.202 272.96 272.96c0 150.776-122.202 272.96-272.96 272.96zM513.782 214.482c-131.698 0-238.84 107.142-238.84 238.84s107.142 238.84 238.84 238.84 238.84-107.14 238.84-238.84c0-131.698-107.142-238.84-238.84-238.84zM921.44 453.322c0 226.146-183.312 409.44-409.44 409.44s-409.44-183.294-409.44-409.44c0-124.618 55.746-236.156 143.576-311.244l-69.838-87.548 26.688-21.292 69.99 87.75c67.272-48.466 149.774-77.104 239.022-77.104 88.848 0 171.016 28.39 238.124 76.47l69.59-87.116 26.656 21.292-69.338 86.814c88.316 75.106 144.41 186.962 144.41 311.978zM136.68 453.322c0 206.954 168.368 375.32 375.32 375.32s375.32-168.366 375.32-375.32c0-206.952-168.366-375.32-375.32-375.32-206.952 0-375.32 168.37-375.32 375.32z" />
<glyph unicode="&#xe60e;" glyph-name="b-arrow2-left" data-tags="b-arrow2-left" horiz-adv-x="896" d="M874.016 448c0 235.308-190.708 426.016-426.016 426.016s-426.016-190.708-426.016-426.016 190.708-426.016 426.016-426.016 426.016 190.708 426.016 426.016zM386.394 384.046l-64.202 64.186 192.008 191.99 24.096-24.096-167.908-167.894 168.71-168.692-24.098-24.096-128.606 128.602z" />
<glyph unicode="&#xe60f;" glyph-name="tutorial" data-tags="tutorial" d="M1008.448 602.34l-496.44 238.94-496.456-238.958 69.956-42.182v-368.94h34.12v348.364l102.36-61.724v-423.12h580.040v423.018l206.42 124.602zM512.008 803.428l424.802-204.488-424.552-256.266-425.034 256.284 424.784 204.47zM767.908 88.84h-511.8v368.44l256.15-154.456 255.65 154.324v-368.308z" />
<glyph unicode="&#xe610;" glyph-name="stopwatch" data-tags="stopwatch" d="M801.236 679.010l28.872 28.856 29.254-29.256 36.186 36.186-82.634 82.636-36.186-36.186 29.254-29.256-28.872-28.856c-63.958 58.644-147.408 96.262-239.522 102.226v69.14h-51.18v-69.14c-204.768-13.194-366.788-183.362-366.788-391.48 0-216.716 175.666-392.38 392.38-392.38s392.38 175.664 392.38 392.38c0 102.226-39.118 195.29-103.144 265.13zM512 55.62c-197.54 0-358.26 160.736-358.26 358.26 0 197.554 160.72 358.26 358.26 358.26s358.26-160.706 358.26-358.26c0-197.524-160.72-358.26-358.26-358.26zM529.060 461.928v224.912h-34.12v-224.912c-19.826-7.064-34.12-25.792-34.12-48.048 0-22.258 14.294-40.984 34.12-48.050v-71.37h34.12v71.37c19.826 7.064 34.12 25.792 34.12 48.050s-14.294 40.984-34.12 48.048z" />
<glyph unicode="&#xe611;" glyph-name="star" data-tags="star" d="M620.156 550.296l-108.156 332.738-108.19-332.736h-352.43l285.588-204.702-109.656-332.628 284.688 206.342 284.654-206.344-109.622 332.628 285.588 204.702h-352.464zM654.612 334.914l76.602-232.35-219.214 158.88-219.248-158.88 84.466 256.158-20.392 14.594-199.29 142.86h271.062l83.402 256.518 83.368-256.518h271.062l-219.648-157.454 7.83-23.808z" />
<glyph unicode="&#xe612;" glyph-name="mouthpiece" data-tags="mouthpiece" d="M-0.658 565.888v-238.84h102.36v-204.72h34.12v204.72h262.464l249.202-201.654v648.278l-250.784-207.784h-397.362zM33.462 361.168v170.6h136.48v-170.6h-136.48zM418.478 539.614l194.89 161.486v-504.204l-203.004 164.268h-206.302v170.6h204.938l9.478 7.85zM883.63 742.634l-24.54-24.556c79.852-62.51 131.448-159.504 131.448-268.544 0-111.94-54.428-211.166-137.962-273.41l24.69-24.69c89.566 68.59 147.394 176.58 147.394 298.1-0.002 118.602-55.098 224.31-141.030 293.1zM773.972 632.96l-24.808-24.806c52.664-33.27 87.834-91.848 87.834-158.62 0-69.722-38.302-130.566-94.914-162.92l24.856-24.858c62.51 39.22 104.176 108.542 104.176 187.778 0.002 76.286-38.516 143.526-97.144 183.426z" />
<glyph unicode="&#xe613;" glyph-name="wifi" data-tags="wifi" d="M511.024 371.222c-75.254 0-136.48-61.226-136.48-136.48s61.226-136.48 136.48-136.48c75.254 0 136.48 61.226 136.48 136.48s-61.224 136.48-136.48 136.48zM511.024 132.382c-56.446 0-102.36 45.916-102.36 102.36s45.914 102.36 102.36 102.36c56.444 0 102.36-45.916 102.36-102.36s-45.916-102.36-102.36-102.36zM511.024 524.762c-115.172 0-214.582-67.64-261.364-165.152l25.54-25.524c38.868 91.898 129.932 156.554 235.824 156.554s196.956-64.658 235.826-156.554l25.538 25.524c-46.782 97.512-146.192 165.152-261.364 165.152zM512.69 797.738c-190.426 0-358.96-95.13-460.886-240.256l24.456-24.458c95.364 139.114 255.402 230.594 436.43 230.594 180.18 0 339.516-90.632 435.048-228.644l24.458 24.458c-102.078 144.026-269.928 238.306-459.506 238.306zM512.69 661.258c-152.908 0-287.206-80.934-362.508-202.154l24.84-24.824c68.408 115.322 194.124 192.858 337.668 192.858 142.678 0 267.78-76.57 336.452-190.758l24.756 24.756c-75.536 120.088-209.166 200.122-361.208 200.122z" />
<glyph unicode="&#xe614;" glyph-name="mix" data-tags="mix" d="M761.97 354.994l111.822-111.872h-201.486l-416.372 443.56h-171.034v-34.12h156.274l416.37-443.56h216.248l-111.522-111.556 24.124-24.124 152.706 152.756-153.006 153.040zM241.174 243.122h-156.274v-34.12h171.034l165.202 175.998-24.89 23.358zM672.338 652.562h201.454l-111.522-111.556 24.124-24.124 152.706 152.756-153.006 153.040-24.124-24.124 111.822-111.872h-216.248l-165.934-177.432 24.922-23.29z" />
<glyph unicode="&#xe615;" glyph-name="purchases" data-tags="purchases" d="M102.56 857.44v-818.88h818.88v818.88h-818.88zM887.32 72.68h-750.64v750.64h750.64v-750.64zM290.186 533.3c0-122.502 99.312-221.78 221.798-221.78s221.762 99.278 221.762 221.78v119.42h34.154v34.12h-102.36v-34.12h34.086v-119.42c0-103.476-84.182-187.66-187.642-187.66-103.492 0-187.678 84.184-187.678 187.66v119.42h34.154v34.12h-102.36v-34.12h34.086v-119.42z" />
<glyph unicode="&#xe616;" glyph-name="share" data-tags="share" d="M836.14 891.56c-75.37 0-136.48-61.126-136.48-136.48 0-13.078 1.95-25.706 5.382-37.684l-398.994-167.236c-23.59 40.868-67.642 68.44-118.188 68.44-75.354 0-136.48-61.126-136.48-136.48 0-75.37 61.126-136.48 136.48-136.48 39.486 0 74.972 16.878 99.894 43.7l257.1-184.778c-10.044-19.008-15.794-40.634-15.794-63.626 0-75.386 61.126-136.498 136.48-136.498s136.48 61.11 136.48 136.498c0 75.354-61.126 136.462-136.48 136.462-40.084 0-76.036-17.41-101.010-44.93l-256.75 184.478c10.564 19.376 16.56 41.568 16.56 65.174 0 12.678-1.864 24.908-5.098 36.57l399.294 167.368c23.706-40.316 67.44-67.472 117.604-67.472 75.372 0 136.48 61.108 136.48 136.496 0 75.352-61.108 136.478-136.48 136.478zM665.54 243.28c56.444 0 102.36-45.916 102.36-102.342 0-56.444-45.916-102.378-102.36-102.378s-102.36 45.932-102.36 102.378c0 56.426 45.916 102.342 102.36 102.342zM187.86 379.76c-56.444 0-102.36 45.916-102.36 102.36s45.916 102.36 102.36 102.36 102.36-45.916 102.36-102.36c0-56.442-45.916-102.36-102.36-102.36zM836.14 652.704c-56.444 0-102.36 45.932-102.36 102.376s45.916 102.36 102.36 102.36c56.444 0 102.36-45.916 102.36-102.36s-45.916-102.376-102.36-102.376z" />
</font>
</defs>
</svg>
